<svg class="main-svg" xmlns="http://www.w3.org/2000/svg" xmlns:xlink="http://www.w3.org/1999/xlink" width="2800" height="1800" style="" viewBox="0 0 1400 900"><rect x="0" y="0" width="1400" height="900" style="fill: rgb(13, 17, 23); fill-opacity: 1;"/><defs id="defs-c80f18"><g class="clips"><clipPath id="clipc80f18xyplot" class="plotclip"><rect width="1001" height="770"/></clipPath><clipPath class="axesclip" id="clipc80f18x"><rect x="170" y="0" width="1001" height="900"/></clipPath><clipPath class="axesclip" id="clipc80f18y"><rect x="0" y="70" width="1400" height="770"/></clipPath><clipPath class="axesclip" id="clipc80f18xy"><rect x="170" y="70" width="1001" height="770"/></clipPath></g><g class="gradients"/><g class="patterns"/></defs><g class="bglayer"><rect class="bg" x="170" y="70" width="1001" height="770" style="fill: rgb(22, 27, 34); fill-opacity: 1; stroke-width: 0;"/></g><g class="layer-below"><g class="imagelayer"/><g class="shapelayer"/></g><g class="cartesianlayer"><g class="subplot xy"><g class="layer-subplot"><g class="shapelayer"/><g class="imagelayer"/></g><g class="minor-gridlayer"><g class="x"/><g class="y"/></g><g class="gridlayer"><g class="x"><path class="xgrid crisp" transform="translate(408.46000000000004,0)" d="M0,70v770" style="stroke: rgb(40, 52, 66); stroke-opacity: 1; stroke-width: 1px;"/><path class="xgrid crisp" transform="translate(575.94,0)" d="M0,70v770" style="stroke: rgb(40, 52, 66); stroke-opacity: 1; stroke-width: 1px;"/><path class="xgrid crisp" transform="translate(743.42,0)" d="M0,70v770" style="stroke: rgb(40, 52, 66); stroke-opacity: 1; stroke-width: 1px;"/><path class="xgrid crisp" transform="translate(910.91,0)" d="M0,70v770" style="stroke: rgb(40, 52, 66); stroke-opacity: 1; stroke-width: 1px;"/><path class="xgrid crisp" transform="translate(1078.3899999999999,0)" d="M0,70v770" style="stroke: rgb(40, 52, 66); stroke-opacity: 1; stroke-width: 1px;"/></g><g class="y"><path class="ygrid crisp" transform="translate(0,731.07)" d="M170,0h1001" style="stroke: rgb(40, 52, 66); stroke-opacity: 1; stroke-width: 1px;"/><path class="ygrid crisp" transform="translate(0,622.26)" d="M170,0h1001" style="stroke: rgb(40, 52, 66); stroke-opacity: 1; stroke-width: 1px;"/><path class="ygrid crisp" transform="translate(0,513.44)" d="M170,0h1001" style="stroke: rgb(40, 52, 66); stroke-opacity: 1; stroke-width: 1px;"/><path class="ygrid crisp" transform="translate(0,404.63)" d="M170,0h1001" style="stroke: rgb(40, 52, 66); stroke-opacity: 1; stroke-width: 1px;"/><path class="ygrid crisp" transform="translate(0,295.82)" d="M170,0h1001" style="stroke: rgb(40, 52, 66); stroke-opacity: 1; stroke-width: 1px;"/><path class="ygrid crisp" transform="translate(0,187.01)" d="M170,0h1001" style="stroke: rgb(40, 52, 66); stroke-opacity: 1; stroke-width: 1px;"/><path class="ygrid crisp" transform="translate(0,78.2)" d="M170,0h1001" style="stroke: rgb(40, 52, 66); stroke-opacity: 1; stroke-width: 1px;"/></g></g><g class="zerolinelayer"><path class="xzl zl crisp" transform="translate(240.98000000000002,0)" d="M0,70v770" style="stroke: rgb(40, 52, 66); stroke-opacity: 1; stroke-width: 2px;"/><path class="yzl zl crisp" transform="translate(0,839.88)" d="M170,0h1001" style="stroke: rgb(40, 52, 66); stroke-opacity: 1; stroke-width: 2px;"/></g><g class="layer-between"><g class="shapelayer"/><g class="imagelayer"/></g><path class="xlines-below"/><path class="ylines-below"/><g class="overlines-below"/><g class="xaxislayer-below"/><g class="yaxislayer-below"/><g class="overaxes-below"/><g class="overplot"><g class="xy" transform="translate(170,70)" clip-path="url(#clipc80f18xyplot)"><g class="scatterlayer mlayer"><g class="trace scatter trace851c60" style="stroke-miterlimit: 2; opacity: 1;"><g class="fills"/><g class="errorbars"/><g class="lines"/><g class="points"><path class="point" transform="translate(199.12,287.56)" d="M8.28,0A8.28,8.28 0 1,1 0,-8.28A8.28,8.28 0 0,1 8.28,0Z" style="opacity: 0.7; stroke-width: 0px; fill: rgb(255, 204, 128); fill-opacity: 1;"/></g><g class="text"/></g><g class="trace scatter trace53fc3c" style="stroke-miterlimit: 2; opacity: 1;"><g class="fills"/><g class="errorbars"/><g class="lines"/><g class="points"><path class="point" transform="translate(110.01,700.05)" d="M11.2,0A11.2,11.2 0 1,1 0,-11.2A11.2,11.2 0 0,1 11.2,0Z" style="opacity: 0.7; stroke-width: 0px; fill: rgb(102, 187, 106); fill-opacity: 1;"/></g><g class="text"/></g><g class="trace scatter trace4cfe12" style="stroke-miterlimit: 2; opacity: 1;"><g class="fills"/><g class="errorbars"/><g class="lines"/><g class="points"><path class="point" transform="translate(526.85,561.32)" d="M9.03,0A9.03,9.03 0 1,1 0,-9.03A9.03,9.03 0 0,1 9.03,0Z" style="opacity: 0.7; stroke-width: 0px; fill: rgb(244, 81, 30); fill-opacity: 1;"/></g><g class="text"/></g><g class="trace scatter tracea17a4d" style="stroke-miterlimit: 2; opacity: 1;"><g class="fills"/><g class="errorbars"/><g class="lines"/><g class="points"><path class="point" transform="translate(934.58,715.13)" d="M13.1,0A13.1,13.1 0 1,1 0,-13.1A13.1,13.1 0 0,1 13.1,0Z" style="opacity: 0.7; stroke-width: 0px; fill: rgb(239, 83, 80); fill-opacity: 1;"/></g><g class="text"/></g><g class="trace scatter traceba01ec" style="stroke-miterlimit: 2; opacity: 1;"><g class="fills"/><g class="errorbars"/><g class="lines"/><g class="points"><path class="point" transform="translate(740.34,650.97)" d="M8.66,0A8.66,8.66 0 1,1 0,-8.66A8.66,8.66 0 0,1 8.66,0Z" style="opacity: 0.7; stroke-width: 0px; fill: rgb(255, 87, 34); fill-opacity: 1;"/></g><g class="text"/></g><g class="trace scatter tracea38476" style="stroke-miterlimit: 2; opacity: 1;"><g class="fills"/><g class="errorbars"/><g class="lines"/><g class="points"><path class="point" transform="translate(604.6,367.73)" d="M22.14,0A22.14,22.14 0 1,1 0,-22.14A22.14,22.14 0 0,1 22.14,0Z" style="opacity: 0.7; stroke-width: 0px; fill: rgb(255, 138, 101); fill-opacity: 1;"/></g><g class="text"/></g><g class="trace scatter trace26a64e" style="stroke-miterlimit: 2; opacity: 1;"><g class="fills"/><g class="errorbars"/><g class="lines"/><g class="points"><path class="point" transform="translate(117.87,682.48)" d="M12.01,0A12.01,12.01 0 1,1 0,-12.01A12.01,12.01 0 0,1 12.01,0Z" style="opacity: 0.7; stroke-width: 0px; fill: rgb(129, 199, 132); fill-opacity: 1;"/></g><g class="text"/></g><g class="trace scatter tracec01361" style="stroke-miterlimit: 2; opacity: 1;"><g class="fills"/><g class="errorbars"/><g class="lines"/><g class="points"><path class="point" transform="translate(595.73,615.41)" d="M8.64,0A8.64,8.64 0 1,1 0,-8.64A8.64,8.64 0 0,1 8.64,0Z" style="opacity: 0.7; stroke-width: 0px; fill: rgb(255, 112, 67); fill-opacity: 1;"/></g><g class="text"/></g><g class="trace scatter trace1fdf43" style="stroke-miterlimit: 2; opacity: 1;"><g class="fills"/><g class="errorbars"/><g class="lines"/><g class="points"><path class="point" transform="translate(78.68,635.31)" d="M7.08,0A7.08,7.08 0 1,1 0,-7.08A7.08,7.08 0 0,1 7.08,0Z" style="opacity: 0.7; stroke-width: 0px; fill: rgb(206, 147, 216); fill-opacity: 1;"/></g><g class="text"/></g><g class="trace scatter trace68958f" style="stroke-miterlimit: 2; opacity: 1;"><g class="fills"/><g class="errorbars"/><g class="lines"/><g class="points"><path class="point" transform="translate(125.98,704.46)" d="M11.58,0A11.58,11.58 0 1,1 0,-11.58A11.58,11.58 0 0,1 11.58,0Z" style="opacity: 0.7; stroke-width: 0px; fill: rgb(165, 214, 167); fill-opacity: 1;"/></g><g class="text"/></g><g class="trace scatter traceaea580" style="stroke-miterlimit: 2; opacity: 1;"><g class="fills"/><g class="errorbars"/><g class="lines"/><g class="points"><path class="point" transform="translate(109.73,715.06)" d="M8.06,0A8.06,8.06 0 1,1 0,-8.06A8.06,8.06 0 0,1 8.06,0Z" style="opacity: 0.7; stroke-width: 0px; fill: rgb(239, 154, 154); fill-opacity: 1;"/></g><g class="text"/></g><g class="trace scatter trace9fd467" style="stroke-miterlimit: 2; opacity: 1;"><g class="fills"/><g class="errorbars"/><g class="lines"/><g class="points"><path class="point" transform="translate(254.02,231.7)" d="M21.78,0A21.78,21.78 0 1,1 0,-21.78A21.78,21.78 0 0,1 21.78,0Z" style="opacity: 1; stroke-width: 2px; fill: rgb(255, 183, 77); fill-opacity: 1; stroke: rgb(255, 255, 255); stroke-opacity: 1;"/></g><g class="text"/></g><g class="trace scatter tracead013b" style="stroke-miterlimit: 2; opacity: 1;"><g class="fills"/><g class="errorbars"/><g class="lines"/><g class="points"><path class="point" transform="translate(437.46,267.6)" d="M20.19,0A20.19,20.19 0 1,1 0,-20.19A20.19,20.19 0 0,1 20.19,0Z" style="opacity: 1; stroke-width: 2px; fill: rgb(230, 74, 25); fill-opacity: 1; stroke: rgb(255, 255, 255); stroke-opacity: 1;"/></g><g class="text"/></g><g class="trace scatter trace09a95e" style="stroke-miterlimit: 2; opacity: 1;"><g class="fills"/><g class="errorbars"/><g class="lines"/><g class="points"><path class="point" transform="translate(77.06,585.53)" d="M8.12,0A8.12,8.12 0 1,1 0,-8.12A8.12,8.12 0 0,1 8.12,0Z" style="opacity: 1; stroke-width: 2px; fill: rgb(142, 36, 170); fill-opacity: 1; stroke: rgb(255, 255, 255); stroke-opacity: 1;"/></g><g class="text"/></g><g class="trace scatter tracee0151d" style="stroke-miterlimit: 2; opacity: 1;"><g class="fills"/><g class="errorbars"/><g class="lines"/><g class="points"><path class="point" transform="translate(707.81,632.53)" d="M18.4,0A18.4,18.4 0 1,1 0,-18.4A18.4,18.4 0 0,1 18.4,0Z" style="opacity: 1; stroke-width: 2px; fill: rgb(67, 160, 71); fill-opacity: 1; stroke: rgb(255, 255, 255); stroke-opacity: 1;"/></g><g class="text"/></g><g class="trace scatter trace0b29d2" style="stroke-miterlimit: 2; opacity: 1;"><g class="fills"/><g class="errorbars"/><g class="lines"/><g class="points"><path class="point" transform="translate(77.47,692.06)" d="M8.06,0A8.06,8.06 0 1,1 0,-8.06A8.06,8.06 0 0,1 8.06,0Z" style="opacity: 1; stroke-width: 2px; fill: rgb(229, 57, 53); fill-opacity: 1; stroke: rgb(255, 255, 255); stroke-opacity: 1;"/></g><g class="text"/></g><g class="trace scatter trace4c14ea" style="stroke-miterlimit: 2; opacity: 1;"><g class="fills"/><g class="errorbars"/><g class="lines"/><g class="points"><path class="point" transform="translate(79.43,67.88)" d="M23.5,0A23.5,23.5 0 1,1 0,-23.5A23.5,23.5 0 0,1 23.5,0Z" style="opacity: 1; stroke-width: 2px; fill: rgb(66, 165, 245); fill-opacity: 1; stroke: rgb(255, 255, 255); stroke-opacity: 1;"/></g><g class="text"/></g><g class="trace scatter trace8af075" style="stroke-miterlimit: 2; opacity: 1;"><g class="fills"/><g class="errorbars"/><g class="lines"/><g class="points"><path class="point" transform="translate(76.61,276.54)" d="M6,0A6,6 0 1,1 0,-6A6,6 0 0,1 6,0Z" style="opacity: 0.7; stroke-width: 0px; fill: rgb(171, 71, 188); fill-opacity: 1;"/></g><g class="text"/></g></g></g></g><g class="zerolinelayer-above"/><path class="xlines-above crisp" d="M0,0" style="fill: none;"/><path class="ylines-above crisp" d="M0,0" style="fill: none;"/><g class="overlines-above"/><g class="xaxislayer-above"><g class="xtick"><text text-anchor="middle" x="0" y="854" transform="translate(240.98000000000002,0)" style="font-family: Inter, 'SF Mono', monospace; font-size: 13px; fill: rgb(224, 224, 224); fill-opacity: 1; white-space: pre;">0</text></g><g class="xtick"><text text-anchor="middle" x="0" y="854" style="font-family: Inter, 'SF Mono', monospace; font-size: 13px; fill: rgb(224, 224, 224); fill-opacity: 1; white-space: pre;" transform="translate(408.46000000000004,0)">2k</text></g><g class="xtick"><text text-anchor="middle" x="0" y="854" style="font-family: Inter, 'SF Mono', monospace; font-size: 13px; fill: rgb(224, 224, 224); fill-opacity: 1; white-space: pre;" transform="translate(575.94,0)">4k</text></g><g class="xtick"><text text-anchor="middle" x="0" y="854" style="font-family: Inter, 'SF Mono', monospace; font-size: 13px; fill: rgb(224, 224, 224); fill-opacity: 1; white-space: pre;" transform="translate(743.42,0)">6k</text></g><g class="xtick"><text text-anchor="middle" x="0" y="854" style="font-family: Inter, 'SF Mono', monospace; font-size: 13px; fill: rgb(224, 224, 224); fill-opacity: 1; white-space: pre;" transform="translate(910.91,0)">8k</text></g><g class="xtick"><text text-anchor="middle" x="0" y="854" style="font-family: Inter, 'SF Mono', monospace; font-size: 13px; fill: rgb(224, 224, 224); fill-opacity: 1; white-space: pre;" transform="translate(1078.3899999999999,0)">10k</text></g></g><g class="yaxislayer-above"><g class="ytick"><text text-anchor="end" x="169" y="4.55" transform="translate(0,839.88)" style="font-family: Inter, 'SF Mono', monospace; font-size: 13px; fill: rgb(224, 224, 224); fill-opacity: 1; white-space: pre;">0</text></g><g class="ytick"><text text-anchor="end" x="169" y="4.55" style="font-family: Inter, 'SF Mono', monospace; font-size: 13px; fill: rgb(224, 224, 224); fill-opacity: 1; white-space: pre;" transform="translate(0,731.07)">10k</text></g><g class="ytick"><text text-anchor="end" x="169" y="4.55" style="font-family: Inter, 'SF Mono', monospace; font-size: 13px; fill: rgb(224, 224, 224); fill-opacity: 1; white-space: pre;" transform="translate(0,622.26)">20k</text></g><g class="ytick"><text text-anchor="end" x="169" y="4.55" style="font-family: Inter, 'SF Mono', monospace; font-size: 13px; fill: rgb(224, 224, 224); fill-opacity: 1; white-space: pre;" transform="translate(0,513.44)">30k</text></g><g class="ytick"><text text-anchor="end" x="169" y="4.55" style="font-family: Inter, 'SF Mono', monospace; font-size: 13px; fill: rgb(224, 224, 224); fill-opacity: 1; white-space: pre;" transform="translate(0,404.63)">40k</text></g><g class="ytick"><text text-anchor="end" x="169" y="4.55" style="font-family: Inter, 'SF Mono', monospace; font-size: 13px; fill: rgb(224, 224, 224); fill-opacity: 1; white-space: pre;" transform="translate(0,295.82)">50k</text></g><g class="ytick"><text text-anchor="end" x="169" y="4.55" style="font-family: Inter, 'SF Mono', monospace; font-size: 13px; fill: rgb(224, 224, 224); fill-opacity: 1; white-space: pre;" transform="translate(0,187.01)">60k</text></g><g class="ytick"><text text-anchor="end" x="169" y="4.55" style="font-family: Inter, 'SF Mono', monospace; font-size: 13px; fill: rgb(224, 224, 224); fill-opacity: 1; white-space: pre;" transform="translate(0,78.2)">70k</text></g></g><g class="overaxes-above"/></g></g><g class="polarlayer"/><g class="smithlayer"/><g class="ternarylayer"/><g class="geolayer"/><g class="funnelarealayer"/><g class="pielayer"/><g class="iciclelayer"/><g class="treemaplayer"/><g class="sunburstlayer"/><g class="glimages"/><defs id="topdefs-c80f18"><g class="clips"/><clipPath id="legendc80f18"><rect width="197" height="352" x="0" y="0"/></clipPath></defs><g class="layer-above"><g class="imagelayer"/><g class="shapelayer"><g class="shape-group" data-index="0" clip-path="url(#clipc80f18y)"><path data-index="0" fill-rule="evenodd" d="M170,693.97L1171,693.97" style="opacity: 1; stroke: rgb(51, 51, 51); stroke-opacity: 1; fill: rgb(0, 0, 0); fill-opacity: 0; stroke-dasharray: 3px, 3px; stroke-width: 1px;"/></g><g class="shape-group" data-index="1" clip-path="url(#clipc80f18x)"><path data-index="1" fill-rule="evenodd" d="M332.55,840L332.55,70" style="opacity: 1; stroke: rgb(51, 51, 51); stroke-opacity: 1; fill: rgb(0, 0, 0); fill-opacity: 0; stroke-dasharray: 3px, 3px; stroke-width: 1px;"/></g></g></g><g class="infolayer"><g class="legend" pointer-events="all" transform="translate(1191.02,70)"><rect class="bg" shape-rendering="crispEdges" style="stroke: rgb(68, 68, 68); stroke-opacity: 1; fill: rgb(13, 17, 23); fill-opacity: 1; stroke-width: 0px;" width="197" height="352" x="0" y="0"/><g class="scrollbox" transform="" clip-path="url(#legendc80f18)"><g class="groups"><g class="traces" transform="translate(0,14.5)" style="opacity: 1;"><text class="legendtext" text-anchor="start" x="40" y="3.5100000000000002" style="font-family: Inter, 'SF Mono', monospace; font-size: 9px; fill: rgb(224, 224, 224); fill-opacity: 1; white-space: pre;">elysia (Bun) · CPU 48%</text><g class="layers" style="opacity: 1;"><g class="legendfill"/><g class="legendlines"/><g class="legendsymbols"><g class="legendpoints"><path class="scatterpts" transform="translate(20,0)" d="M8,0A8,8 0 1,1 0,-8A8,8 0 0,1 8,0Z" style="opacity: 0.7; stroke-width: 0px; fill: rgb(255, 204, 128); fill-opacity: 1;"/></g></g></g><rect class="legendtoggle" x="0" y="-9.5" width="191.71875" height="19" style="fill: rgb(0, 0, 0); fill-opacity: 0;"/></g><g class="traces" transform="translate(0,33.5)" style="opacity: 1;"><text class="legendtext" text-anchor="start" x="40" y="3.5100000000000002" style="font-family: Inter, 'SF Mono', monospace; font-size: 9px; fill: rgb(224, 224, 224); fill-opacity: 1; white-space: pre;">fastapi (Python) · CPU 79%</text><g class="layers" style="opacity: 1;"><g class="legendfill"/><g class="legendlines"/><g class="legendsymbols"><g class="legendpoints"><path class="scatterpts" transform="translate(20,0)" d="M8,0A8,8 0 1,1 0,-8A8,8 0 0,1 8,0Z" style="opacity: 0.7; stroke-width: 0px; fill: rgb(102, 187, 106); fill-opacity: 1;"/></g></g></g><rect class="legendtoggle" x="0" y="-9.5" width="191.71875" height="19" style="fill: rgb(0, 0, 0); fill-opacity: 0;"/></g><g class="traces" transform="translate(0,52.5)" style="opacity: 1;"><text class="legendtext" text-anchor="start" x="40" y="3.5100000000000002" style="font-family: Inter, 'SF Mono', monospace; font-size: 9px; fill: rgb(224, 224, 224); fill-opacity: 1; white-space: pre;">fastify (Node.js) · CPU 56%</text><g class="layers" style="opacity: 1;"><g class="legendfill"/><g class="legendlines"/><g class="legendsymbols"><g class="legendpoints"><path class="scatterpts" transform="translate(20,0)" d="M8,0A8,8 0 1,1 0,-8A8,8 0 0,1 8,0Z" style="opacity: 0.7; stroke-width: 0px; fill: rgb(244, 81, 30); fill-opacity: 1;"/></g></g></g><rect class="legendtoggle" x="0" y="-9.5" width="191.71875" height="19" style="fill: rgb(0, 0, 0); fill-opacity: 0;"/></g><g class="traces" transform="translate(0,71.5)" style="opacity: 1;"><text class="legendtext" text-anchor="start" x="40" y="3.5100000000000002" style="font-family: Inter, 'SF Mono', monospace; font-size: 9px; fill: rgb(224, 224, 224); fill-opacity: 1; white-space: pre;">hanami-api (Ruby) · CPU 100%</text><g class="layers" style="opacity: 1;"><g class="legendfill"/><g class="legendlines"/><g class="legendsymbols"><g class="legendpoints"><path class="scatterpts" transform="translate(20,0)" d="M8,0A8,8 0 1,1 0,-8A8,8 0 0,1 8,0Z" style="opacity: 0.7; stroke-width: 0px; fill: rgb(239, 83, 80); fill-opacity: 1;"/></g></g></g><rect class="legendtoggle" x="0" y="-9.5" width="191.71875" height="19" style="fill: rgb(0, 0, 0); fill-opacity: 0;"/></g><g class="traces" transform="translate(0,90.5)" style="opacity: 1;"><text class="legendtext" text-anchor="start" x="40" y="3.5100000000000002" style="font-family: Inter, 'SF Mono', monospace; font-size: 9px; fill: rgb(224, 224, 224); fill-opacity: 1; white-space: pre;">hono (Node.js) · CPU 52%</text><g class="layers" style="opacity: 1;"><g class="legendfill"/><g class="legendlines"/><g class="legendsymbols"><g class="legendpoints"><path class="scatterpts" transform="translate(20,0)" d="M8,0A8,8 0 1,1 0,-8A8,8 0 0,1 8,0Z" style="opacity: 0.7; stroke-width: 0px; fill: rgb(255, 87, 34); fill-opacity: 1;"/></g></g></g><rect class="legendtoggle" x="0" y="-9.5" width="191.71875" height="19" style="fill: rgb(0, 0, 0); fill-opacity: 0;"/></g><g class="traces" transform="translate(0,109.5)" style="opacity: 1;"><text class="legendtext" text-anchor="start" x="40" y="3.5100000000000002" style="font-family: Inter, 'SF Mono', monospace; font-size: 9px; fill: rgb(224, 224, 224); fill-opacity: 1; white-space: pre;">kito (Node.js) · CPU 196%</text><g class="layers" style="opacity: 1;"><g class="legendfill"/><g class="legendlines"/><g class="legendsymbols"><g class="legendpoints"><path class="scatterpts" transform="translate(20,0)" d="M8,0A8,8 0 1,1 0,-8A8,8 0 0,1 8,0Z" style="opacity: 0.7; stroke-width: 0px; fill: rgb(255, 138, 101); fill-opacity: 1;"/></g></g></g><rect class="legendtoggle" x="0" y="-9.5" width="191.71875" height="19" style="fill: rgb(0, 0, 0); fill-opacity: 0;"/></g><g class="traces" transform="translate(0,128.5)" style="opacity: 1;"><text class="legendtext" text-anchor="start" x="40" y="3.5100000000000002" style="font-family: Inter, 'SF Mono', monospace; font-size: 9px; fill: rgb(224, 224, 224); fill-opacity: 1; white-space: pre;">litestar (Python) · CPU 88%</text><g class="layers" style="opacity: 1;"><g class="legendfill"/><g class="legendlines"/><g class="legendsymbols"><g class="legendpoints"><path class="scatterpts" transform="translate(20,0)" d="M8,0A8,8 0 1,1 0,-8A8,8 0 0,1 8,0Z" style="opacity: 0.7; stroke-width: 0px; fill: rgb(129, 199, 132); fill-opacity: 1;"/></g></g></g><rect class="legendtoggle" x="0" y="-9.5" width="191.71875" height="19" style="fill: rgb(0, 0, 0); fill-opacity: 0;"/></g><g class="traces" transform="translate(0,147.5)" style="opacity: 1;"><text class="legendtext" text-anchor="start" x="40" y="3.5100000000000002" style="font-family: Inter, 'SF Mono', monospace; font-size: 9px; fill: rgb(224, 224, 224); fill-opacity: 1; white-space: pre;">morojs (Node.js) · CPU 52%</text><g class="layers" style="opacity: 1;"><g class="legendfill"/><g class="legendlines"/><g class="legendsymbols"><g class="legendpoints"><path class="scatterpts" transform="translate(20,0)" d="M8,0A8,8 0 1,1 0,-8A8,8 0 0,1 8,0Z" style="opacity: 0.7; stroke-width: 0px; fill: rgb(255, 112, 67); fill-opacity: 1;"/></g></g></g><rect class="legendtoggle" x="0" y="-9.5" width="191.71875" height="19" style="fill: rgb(0, 0, 0); fill-opacity: 0;"/></g><g class="traces" transform="translate(0,166.5)" style="opacity: 1;"><text class="legendtext" text-anchor="start" x="40" y="3.5100000000000002" style="font-family: Inter, 'SF Mono', monospace; font-size: 9px; fill: rgb(224, 224, 224); fill-opacity: 1; white-space: pre;">phalcon (PHP) · CPU 35%</text><g class="layers" style="opacity: 1;"><g class="legendfill"/><g class="legendlines"/><g class="legendsymbols"><g class="legendpoints"><path class="scatterpts" transform="translate(20,0)" d="M7.08,0A7.08,7.08 0 1,1 0,-7.08A7.08,7.08 0 0,1 7.08,0Z" style="opacity: 0.7; stroke-width: 0px; fill: rgb(206, 147, 216); fill-opacity: 1;"/></g></g></g><rect class="legendtoggle" x="0" y="-9.5" width="191.71875" height="19" style="fill: rgb(0, 0, 0); fill-opacity: 0;"/></g><g class="traces" transform="translate(0,185.5)" style="opacity: 1;"><text class="legendtext" text-anchor="start" x="40" y="3.5100000000000002" style="font-family: Inter, 'SF Mono', monospace; font-size: 9px; fill: rgb(224, 224, 224); fill-opacity: 1; white-space: pre;">robyn (Python) · CPU 83%</text><g class="layers" style="opacity: 1;"><g class="legendfill"/><g class="legendlines"/><g class="legendsymbols"><g class="legendpoints"><path class="scatterpts" transform="translate(20,0)" d="M8,0A8,8 0 1,1 0,-8A8,8 0 0,1 8,0Z" style="opacity: 0.7; stroke-width: 0px; fill: rgb(165, 214, 167); fill-opacity: 1;"/></g></g></g><rect class="legendtoggle" x="0" y="-9.5" width="191.71875" height="19" style="fill: rgb(0, 0, 0); fill-opacity: 0;"/></g><g class="traces" transform="translate(0,204.5)" style="opacity: 1;"><text class="legendtext" text-anchor="start" x="40" y="3.5100000000000002" style="font-family: Inter, 'SF Mono', monospace; font-size: 9px; fill: rgb(224, 224, 224); fill-opacity: 1; white-space: pre;">roda (Ruby) · CPU 46%</text><g class="layers" style="opacity: 1;"><g class="legendfill"/><g class="legendlines"/><g class="legendsymbols"><g class="legendpoints"><path class="scatterpts" transform="translate(20,0)" d="M8,0A8,8 0 1,1 0,-8A8,8 0 0,1 8,0Z" style="opacity: 0.7; stroke-width: 0px; fill: rgb(239, 154, 154); fill-opacity: 1;"/></g></g></g><rect class="legendtoggle" x="0" y="-9.5" width="191.71875" height="19" style="fill: rgb(0, 0, 0); fill-opacity: 0;"/></g><g class="traces" transform="translate(0,223.5)" style="opacity: 1;"><text class="legendtext" text-anchor="start" x="40" y="3.5100000000000002" style="font-family: Inter, 'SF Mono', monospace; font-size: 9px; fill: rgb(224, 224, 224); fill-opacity: 1; white-space: pre;">spikard (Bun) · CPU 193%</text><g class="layers" style="opacity: 1;"><g class="legendfill"/><g class="legendlines"/><g class="legendsymbols"><g class="legendpoints"><path class="scatterpts" transform="translate(20,0)" d="M8,0A8,8 0 1,1 0,-8A8,8 0 0,1 8,0Z" style="opacity: 1; stroke-width: 2px; fill: rgb(255, 183, 77); fill-opacity: 1; stroke: rgb(255, 255, 255); stroke-opacity: 1;"/></g></g></g><rect class="legendtoggle" x="0" y="-9.5" width="191.71875" height="19" style="fill: rgb(0, 0, 0); fill-opacity: 0;"/></g><g class="traces" transform="translate(0,242.5)" style="opacity: 1;"><text class="legendtext" text-anchor="start" x="40" y="3.5100000000000002" style="font-family: Inter, 'SF Mono', monospace; font-size: 9px; fill: rgb(224, 224, 224); fill-opacity: 1; white-space: pre;">spikard (Node.js) · CPU 176%</text><g class="layers" style="opacity: 1;"><g class="legendfill"/><g class="legendlines"/><g class="legendsymbols"><g class="legendpoints"><path class="scatterpts" transform="translate(20,0)" d="M8,0A8,8 0 1,1 0,-8A8,8 0 0,1 8,0Z" style="opacity: 1; stroke-width: 2px; fill: rgb(230, 74, 25); fill-opacity: 1; stroke: rgb(255, 255, 255); stroke-opacity: 1;"/></g></g></g><rect class="legendtoggle" x="0" y="-9.5" width="191.71875" height="19" style="fill: rgb(0, 0, 0); fill-opacity: 0;"/></g><g class="traces" transform="translate(0,261.5)" style="opacity: 1;"><text class="legendtext" text-anchor="start" x="40" y="3.5100000000000002" style="font-family: Inter, 'SF Mono', monospace; font-size: 9px; fill: rgb(224, 224, 224); fill-opacity: 1; white-space: pre;">spikard (PHP) · CPU 46%</text><g class="layers" style="opacity: 1;"><g class="legendfill"/><g class="legendlines"/><g class="legendsymbols"><g class="legendpoints"><path class="scatterpts" transform="translate(20,0)" d="M8,0A8,8 0 1,1 0,-8A8,8 0 0,1 8,0Z" style="opacity: 1; stroke-width: 2px; fill: rgb(142, 36, 170); fill-opacity: 1; stroke: rgb(255, 255, 255); stroke-opacity: 1;"/></g></g></g><rect class="legendtoggle" x="0" y="-9.5" width="191.71875" height="19" style="fill: rgb(0, 0, 0); fill-opacity: 0;"/></g><g class="traces" transform="translate(0,280.5)" style="opacity: 1;"><text class="legendtext" text-anchor="start" x="40" y="3.5100000000000002" style="font-family: Inter, 'SF Mono', monospace; font-size: 9px; fill: rgb(224, 224, 224); fill-opacity: 1; white-space: pre;">spikard (Python) · CPU 156%</text><g class="layers" style="opacity: 1;"><g class="legendfill"/><g class="legendlines"/><g class="legendsymbols"><g class="legendpoints"><path class="scatterpts" transform="translate(20,0)" d="M8,0A8,8 0 1,1 0,-8A8,8 0 0,1 8,0Z" style="opacity: 1; stroke-width: 2px; fill: rgb(67, 160, 71); fill-opacity: 1; stroke: rgb(255, 255, 255); stroke-opacity: 1;"/></g></g></g><rect class="legendtoggle" x="0" y="-9.5" width="191.71875" height="19" style="fill: rgb(0, 0, 0); fill-opacity: 0;"/></g><g class="traces" transform="translate(0,299.5)" style="opacity: 1;"><text class="legendtext" text-anchor="start" x="40" y="3.5100000000000002" style="font-family: Inter, 'SF Mono', monospace; font-size: 9px; fill: rgb(224, 224, 224); fill-opacity: 1; white-space: pre;">spikard (Ruby) · CPU 46%</text><g class="layers" style="opacity: 1;"><g class="legendfill"/><g class="legendlines"/><g class="legendsymbols"><g class="legendpoints"><path class="scatterpts" transform="translate(20,0)" d="M8,0A8,8 0 1,1 0,-8A8,8 0 0,1 8,0Z" style="opacity: 1; stroke-width: 2px; fill: rgb(229, 57, 53); fill-opacity: 1; stroke: rgb(255, 255, 255); stroke-opacity: 1;"/></g></g></g><rect class="legendtoggle" x="0" y="-9.5" width="191.71875" height="19" style="fill: rgb(0, 0, 0); fill-opacity: 0;"/></g><g class="traces" transform="translate(0,318.5)" style="opacity: 1;"><text class="legendtext" text-anchor="start" x="40" y="3.5100000000000002" style="font-family: Inter, 'SF Mono', monospace; font-size: 9px; fill: rgb(224, 224, 224); fill-opacity: 1; white-space: pre;">spikard (Rust) · CPU 211%</text><g class="layers" style="opacity: 1;"><g class="legendfill"/><g class="legendlines"/><g class="legendsymbols"><g class="legendpoints"><path class="scatterpts" transform="translate(20,0)" d="M8,0A8,8 0 1,1 0,-8A8,8 0 0,1 8,0Z" style="opacity: 1; stroke-width: 2px; fill: rgb(66, 165, 245); fill-opacity: 1; stroke: rgb(255, 255, 255); stroke-opacity: 1;"/></g></g></g><rect class="legendtoggle" x="0" y="-9.5" width="191.71875" height="19" style="fill: rgb(0, 0, 0); fill-opacity: 0;"/></g><g class="traces" transform="translate(0,337.5)" style="opacity: 1;"><text class="legendtext" text-anchor="start" x="40" y="3.5100000000000002" style="font-family: Inter, 'SF Mono', monospace; font-size: 9px; fill: rgb(224, 224, 224); fill-opacity: 1; white-space: pre;">trongate (PHP) · CPU 23%</text><g class="layers" style="opacity: 1;"><g class="legendfill"/><g class="legendlines"/><g class="legendsymbols"><g class="legendpoints"><path class="scatterpts" transform="translate(20,0)" d="M6,0A6,6 0 1,1 0,-6A6,6 0 0,1 6,0Z" style="opacity: 0.7; stroke-width: 0px; fill: rgb(171, 71, 188); fill-opacity: 1;"/></g></g></g><rect class="legendtoggle" x="0" y="-9.5" width="191.71875" height="19" style="fill: rgb(0, 0, 0); fill-opacity: 0;"/></g></g></g><rect class="scrollbar" rx="20" ry="3" width="0" height="0" style="fill: rgb(128, 139, 164); fill-opacity: 1;" x="0" y="0"/></g><g class="g-gtitle"><text class="gtitle" x="70" y="35" text-anchor="start" dy="0em" style="opacity: 1; font-family: Inter, 'SF Mono', monospace; font-size: 18px; fill: rgb(224, 224, 224); fill-opacity: 1; white-space: pre;">Resource Efficiency (bubble size = CPU cores)</text></g><g class="g-xtitle"><text class="xtitle" x="670.5" y="882.7" text-anchor="middle" style="opacity: 1; font-family: Inter, 'SF Mono', monospace; font-size: 16px; fill: rgb(224, 224, 224); fill-opacity: 1; white-space: pre;">Peak Memory (MB)</text></g><g class="g-ytitle"><text class="ytitle" transform="rotate(-90,125.415625,455)" x="125.415625" y="455" text-anchor="middle" style="opacity: 1; font-family: Inter, 'SF Mono', monospace; font-size: 16px; fill: rgb(224, 224, 224); fill-opacity: 1; white-space: pre;">Mean RPS</text></g><g class="annotation" data-index="0" style="opacity: 1;"><g class="annotation-text-g" transform="rotate(0,282.52,92.9)"><g class="cursor-pointer" transform="translate(190,85)"><rect class="bg" x="0.5" y="0.5" width="184" height="14" style="stroke-width: 1px; stroke: rgb(0, 0, 0); stroke-opacity: 0; fill: rgb(0, 0, 0); fill-opacity: 0;"/><text class="annotation-text" text-anchor="middle" x="92.3125" y="11" style="font-family: Inter, 'SF Mono', monospace; font-size: 10px; fill: rgb(85, 85, 85); fill-opacity: 1; white-space: pre;">← High throughput / Low memory</text></g></g></g><g class="annotation" data-index="1" style="opacity: 1;"><g class="annotation-text-g" transform="rotate(0,319.43,127.88)"><g class="cursor-pointer" transform="translate(279,121)"><rect class="bg" x="0.5" y="0.5" width="79" height="13" style="stroke-width: 1px; stroke: rgb(0, 0, 0); stroke-opacity: 0; fill: rgb(0, 0, 0); fill-opacity: 0;"/><text class="annotation-text" text-anchor="middle" x="39.9296875" y="10" style="font-family: Inter, 'SF Mono', monospace; font-size: 9px; fill: rgb(170, 170, 170); fill-opacity: 1; white-space: pre;">spikard (Rust)</text></g></g><g class="annotation-arrow-g" style="opacity: 1;"><path d="M279.43,127.88L249.43,137.88" style="stroke-width: 1px; stroke: rgb(68, 68, 68); stroke-opacity: 1; stroke-dasharray: 0px, 0px, 31.6228px, 31.6228px;"/></g></g><g class="annotation" data-index="2" style="opacity: 1;"><g class="annotation-text-g" transform="rotate(0,357.02,283.7)"><g class="cursor-pointer" transform="translate(320,277)"><rect class="bg" x="0.5" y="0.5" width="73" height="13" style="stroke-width: 1px; stroke: rgb(0, 0, 0); stroke-opacity: 0; fill: rgb(0, 0, 0); fill-opacity: 0;"/><text class="annotation-text" text-anchor="middle" x="37.2265625" y="10" style="font-family: Inter, 'SF Mono', monospace; font-size: 9px; fill: rgb(170, 170, 170); fill-opacity: 1; white-space: pre;">spikard (Bun)</text></g></g><g class="annotation-arrow-g" style="opacity: 1;"><path d="M394.02,283.7L424.02,301.7" style="stroke-width: 1px; stroke: rgb(68, 68, 68); stroke-opacity: 1; stroke-dasharray: 0px, 0px, 34.9857px, 34.9857px;"/></g></g><g class="annotation" data-index="3" style="opacity: 1;"><g class="annotation-text-g" transform="rotate(0,529.46,311.6)"><g class="cursor-pointer" transform="translate(481,305)"><rect class="bg" x="0.5" y="0.5" width="95" height="13" style="stroke-width: 1px; stroke: rgb(0, 0, 0); stroke-opacity: 0; fill: rgb(0, 0, 0); fill-opacity: 0;"/><text class="annotation-text" text-anchor="middle" x="48.0625" y="10" style="font-family: Inter, 'SF Mono', monospace; font-size: 9px; fill: rgb(170, 170, 170); fill-opacity: 1; white-space: pre;">spikard (Node.js)</text></g></g><g class="annotation-arrow-g" style="opacity: 1;"><path d="M577.46,311.6L607.46,337.6" style="stroke-width: 1px; stroke: rgb(68, 68, 68); stroke-opacity: 1; stroke-dasharray: 0px, 0px, 39.6989px, 39.6989px;"/></g></g><g class="annotation" data-index="4" style="opacity: 1;"><g class="annotation-text-g" transform="rotate(0,316.61,336.54)"><g class="cursor-pointer" transform="translate(277,330)"><rect class="bg" x="0.5" y="0.5" width="79" height="13" style="stroke-width: 1px; stroke: rgb(0, 0, 0); stroke-opacity: 0; fill: rgb(0, 0, 0); fill-opacity: 0;"/><text class="annotation-text" text-anchor="middle" x="39.9296875" y="10" style="font-family: Inter, 'SF Mono', monospace; font-size: 9px; fill: rgb(170, 170, 170); fill-opacity: 1; white-space: pre;">trongate (PHP)</text></g></g><g class="annotation-arrow-g" style="opacity: 1;"><path d="M276.61,336.54L246.61,346.54" style="stroke-width: 1px; stroke: rgb(68, 68, 68); stroke-opacity: 1; stroke-dasharray: 0px, 0px, 31.6228px, 31.6228px;"/></g></g><g class="annotation" data-index="5" style="opacity: 1;"><g class="annotation-text-g" transform="rotate(0,304.62,339.56)"><g class="cursor-pointer" transform="translate(270,333)"><rect class="bg" x="0.5" y="0.5" width="68" height="13" style="stroke-width: 1px; stroke: rgb(0, 0, 0); stroke-opacity: 0; fill: rgb(0, 0, 0); fill-opacity: 0;"/><text class="annotation-text" text-anchor="middle" x="34.515625" y="10" style="font-family: Inter, 'SF Mono', monospace; font-size: 9px; fill: rgb(170, 170, 170); fill-opacity: 1; white-space: pre;">elysia (Bun)</text></g></g><g class="annotation-arrow-g" style="opacity: 1;"><path d="M339.12,339.56L369.12,357.56" style="stroke-width: 1px; stroke: rgb(68, 68, 68); stroke-opacity: 1; stroke-dasharray: 0px, 0px, 34.9857px, 34.9857px;"/></g></g><g class="annotation" data-index="6" style="opacity: 1;"><g class="annotation-text-g" transform="rotate(0,704.6,411.73)"><g class="cursor-pointer" transform="translate(665,405)"><rect class="bg" x="0.5" y="0.5" width="79" height="13" style="stroke-width: 1px; stroke: rgb(0, 0, 0); stroke-opacity: 0; fill: rgb(0, 0, 0); fill-opacity: 0;"/><text class="annotation-text" text-anchor="middle" x="39.9296875" y="10" style="font-family: Inter, 'SF Mono', monospace; font-size: 9px; fill: rgb(170, 170, 170); fill-opacity: 1; white-space: pre;">kito (Node.js)</text></g></g><g class="annotation-arrow-g" style="opacity: 1;"><path d="M744.6,411.73L774.6,437.73" style="stroke-width: 1px; stroke: rgb(68, 68, 68); stroke-opacity: 1; stroke-dasharray: 0px, 0px, 39.6989px, 39.6989px;"/></g></g><g class="annotation" data-index="7" style="opacity: 1;"><g class="annotation-text-g" transform="rotate(0,618.85,621.32)"><g class="cursor-pointer" transform="translate(571,614)"><rect class="bg" x="0.5" y="0.5" width="95" height="13" style="stroke-width: 1px; stroke: rgb(0, 0, 0); stroke-opacity: 0; fill: rgb(0, 0, 0); fill-opacity: 0;"/><text class="annotation-text" text-anchor="middle" x="48.0625" y="10" style="font-family: Inter, 'SF Mono', monospace; font-size: 9px; fill: rgb(170, 170, 170); fill-opacity: 1; white-space: pre;">fastify (Node.js)</text></g></g><g class="annotation-arrow-g" style="opacity: 1;"><path d="M666.85,621.32L696.85,631.32" style="stroke-width: 1px; stroke: rgb(68, 68, 68); stroke-opacity: 1; stroke-dasharray: 0px, 0px, 31.6228px, 31.6228px;"/></g></g><g class="annotation" data-index="8" style="opacity: 1;"><g class="annotation-text-g" transform="rotate(0,314.06,637.53)"><g class="cursor-pointer" transform="translate(277,631)"><rect class="bg" x="0.5" y="0.5" width="73" height="13" style="stroke-width: 1px; stroke: rgb(0, 0, 0); stroke-opacity: 0; fill: rgb(0, 0, 0); fill-opacity: 0;"/><text class="annotation-text" text-anchor="middle" x="37.2265625" y="10" style="font-family: Inter, 'SF Mono', monospace; font-size: 9px; fill: rgb(170, 170, 170); fill-opacity: 1; white-space: pre;">spikard (PHP)</text></g></g><g class="annotation-arrow-g" style="opacity: 1;"><path d="M277.06,637.53L247.06,655.53" style="stroke-width: 1px; stroke: rgb(68, 68, 68); stroke-opacity: 1; stroke-dasharray: 0px, 0px, 34.9857px, 34.9857px;"/></g></g><g class="annotation" data-index="9" style="opacity: 1;"><g class="annotation-text-g" transform="rotate(0,690.23,659.41)"><g class="cursor-pointer" transform="translate(645,652)"><rect class="bg" x="0.5" y="0.5" width="90" height="13" style="stroke-width: 1px; stroke: rgb(0, 0, 0); stroke-opacity: 0; fill: rgb(0, 0, 0); fill-opacity: 0;"/><text class="annotation-text" text-anchor="middle" x="45.3515625" y="10" style="font-family: Inter, 'SF Mono', monospace; font-size: 9px; fill: rgb(170, 170, 170); fill-opacity: 1; white-space: pre;">morojs (Node.js)</text></g></g><g class="annotation-arrow-g" style="opacity: 1;"><path d="M735.73,659.41L765.73,685.41" style="stroke-width: 1px; stroke: rgb(68, 68, 68); stroke-opacity: 1; stroke-dasharray: 0px, 0px, 39.6989px, 39.6989px;"/></g></g><g class="annotation" data-index="10" style="opacity: 1;"><g class="annotation-text-g" transform="rotate(0,802.31,692.53)"><g class="cursor-pointer" transform="translate(757,686)"><rect class="bg" x="0.5" y="0.5" width="90" height="13" style="stroke-width: 1px; stroke: rgb(0, 0, 0); stroke-opacity: 0; fill: rgb(0, 0, 0); fill-opacity: 0;"/><text class="annotation-text" text-anchor="middle" x="45.3515625" y="10" style="font-family: Inter, 'SF Mono', monospace; font-size: 9px; fill: rgb(170, 170, 170); fill-opacity: 1; white-space: pre;">spikard (Python)</text></g></g><g class="annotation-arrow-g" style="opacity: 1;"><path d="M847.81,692.53L877.81,702.53" style="stroke-width: 1px; stroke: rgb(68, 68, 68); stroke-opacity: 1; stroke-dasharray: 0px, 0px, 31.6228px, 31.6228px;"/></g></g><g class="annotation" data-index="11" style="opacity: 1;"><g class="annotation-text-g" transform="rotate(0,315.68,687.31)"><g class="cursor-pointer" transform="translate(279,680)"><rect class="bg" x="0.5" y="0.5" width="73" height="13" style="stroke-width: 1px; stroke: rgb(0, 0, 0); stroke-opacity: 0; fill: rgb(0, 0, 0); fill-opacity: 0;"/><text class="annotation-text" text-anchor="middle" x="37.2265625" y="10" style="font-family: Inter, 'SF Mono', monospace; font-size: 9px; fill: rgb(170, 170, 170); fill-opacity: 1; white-space: pre;">phalcon (PHP)</text></g></g><g class="annotation-arrow-g" style="opacity: 1;"><path d="M278.68,687.31L248.68,705.31" style="stroke-width: 1px; stroke: rgb(68, 68, 68); stroke-opacity: 1; stroke-dasharray: 0px, 0px, 34.9857px, 34.9857px;"/></g></g><g class="annotation" data-index="12" style="opacity: 1;"><g class="annotation-text-g" transform="rotate(0,840.34,694.97)"><g class="cursor-pointer" transform="translate(800,688)"><rect class="bg" x="0.5" y="0.5" width="79" height="13" style="stroke-width: 1px; stroke: rgb(0, 0, 0); stroke-opacity: 0; fill: rgb(0, 0, 0); fill-opacity: 0;"/><text class="annotation-text" text-anchor="middle" x="39.9296875" y="10" style="font-family: Inter, 'SF Mono', monospace; font-size: 9px; fill: rgb(170, 170, 170); fill-opacity: 1; white-space: pre;">hono (Node.js)</text></g></g><g class="annotation-arrow-g" style="opacity: 1;"><path d="M880.34,694.97L910.34,720.97" style="stroke-width: 1px; stroke: rgb(68, 68, 68); stroke-opacity: 1; stroke-dasharray: 0px, 0px, 39.6989px, 39.6989px;"/></g></g><g class="annotation" data-index="13" style="opacity: 1;"><g class="annotation-text-g" transform="rotate(0,365.87,742.48)"><g class="cursor-pointer" transform="translate(318,735)"><rect class="bg" x="0.5" y="0.5" width="95" height="13" style="stroke-width: 1px; stroke: rgb(0, 0, 0); stroke-opacity: 0; fill: rgb(0, 0, 0); fill-opacity: 0;"/><text class="annotation-text" text-anchor="middle" x="48.0625" y="10" style="font-family: Inter, 'SF Mono', monospace; font-size: 9px; fill: rgb(170, 170, 170); fill-opacity: 1; white-space: pre;">litestar (Python)</text></g></g><g class="annotation-arrow-g" style="opacity: 1;"><path d="M317.87,742.48L287.87,752.48" style="stroke-width: 1px; stroke: rgb(68, 68, 68); stroke-opacity: 1; stroke-dasharray: 0px, 0px, 31.6228px, 31.6228px;"/></g></g><g class="annotation" data-index="14" style="opacity: 1;"><g class="annotation-text-g" transform="rotate(0,317.47,744.06)"><g class="cursor-pointer" transform="translate(277,737)"><rect class="bg" x="0.5" y="0.5" width="79" height="13" style="stroke-width: 1px; stroke: rgb(0, 0, 0); stroke-opacity: 0; fill: rgb(0, 0, 0); fill-opacity: 0;"/><text class="annotation-text" text-anchor="middle" x="39.9296875" y="10" style="font-family: Inter, 'SF Mono', monospace; font-size: 9px; fill: rgb(170, 170, 170); fill-opacity: 1; white-space: pre;">spikard (Ruby)</text></g></g><g class="annotation-arrow-g" style="opacity: 1;"><path d="M277.47,744.06L247.47,762.06" style="stroke-width: 1px; stroke: rgb(68, 68, 68); stroke-opacity: 1; stroke-dasharray: 0px, 0px, 34.9857px, 34.9857px;"/></g></g><g class="annotation" data-index="15" style="opacity: 1;"><g class="annotation-text-g" transform="rotate(0,355.51,744.05)"><g class="cursor-pointer" transform="translate(310,737)"><rect class="bg" x="0.5" y="0.5" width="90" height="13" style="stroke-width: 1px; stroke: rgb(0, 0, 0); stroke-opacity: 0; fill: rgb(0, 0, 0); fill-opacity: 0;"/><text class="annotation-text" text-anchor="middle" x="45.3515625" y="10" style="font-family: Inter, 'SF Mono', monospace; font-size: 9px; fill: rgb(170, 170, 170); fill-opacity: 1; white-space: pre;">fastapi (Python)</text></g></g><g class="annotation-arrow-g" style="opacity: 1;"><path d="M310.01,744.05L280.01,770.05" style="stroke-width: 1px; stroke: rgb(68, 68, 68); stroke-opacity: 1; stroke-dasharray: 0px, 0px, 39.6989px, 39.6989px;"/></g></g><g class="annotation" data-index="16" style="opacity: 1;"><g class="annotation-text-g" transform="rotate(0,365.98,764.46)"><g class="cursor-pointer" transform="translate(326,757)"><rect class="bg" x="0.5" y="0.5" width="79" height="13" style="stroke-width: 1px; stroke: rgb(0, 0, 0); stroke-opacity: 0; fill: rgb(0, 0, 0); fill-opacity: 0;"/><text class="annotation-text" text-anchor="middle" x="39.9296875" y="10" style="font-family: Inter, 'SF Mono', monospace; font-size: 9px; fill: rgb(170, 170, 170); fill-opacity: 1; white-space: pre;">robyn (Python)</text></g></g><g class="annotation-arrow-g" style="opacity: 1;"><path d="M325.98,764.46L295.98,774.46" style="stroke-width: 1px; stroke: rgb(68, 68, 68); stroke-opacity: 1; stroke-dasharray: 0px, 0px, 31.6228px, 31.6228px;"/></g></g><g class="annotation" data-index="17" style="opacity: 1;"><g class="annotation-text-g" transform="rotate(0,341.73,767.06)"><g class="cursor-pointer" transform="translate(310,760)"><rect class="bg" x="0.5" y="0.5" width="63" height="13" style="stroke-width: 1px; stroke: rgb(0, 0, 0); stroke-opacity: 0; fill: rgb(0, 0, 0); fill-opacity: 0;"/><text class="annotation-text" text-anchor="middle" x="31.8046875" y="10" style="font-family: Inter, 'SF Mono', monospace; font-size: 9px; fill: rgb(170, 170, 170); fill-opacity: 1; white-space: pre;">roda (Ruby)</text></g></g><g class="annotation-arrow-g" style="opacity: 1;"><path d="M309.73,767.06L279.73,785.06" style="stroke-width: 1px; stroke: rgb(68, 68, 68); stroke-opacity: 1; stroke-dasharray: 0px, 0px, 34.9857px, 34.9857px;"/></g></g><g class="annotation" data-index="18" style="opacity: 1;"><g class="annotation-text-g" transform="rotate(0,1026.58,759.13)"><g class="cursor-pointer" transform="translate(979,752)"><rect class="bg" x="0.5" y="0.5" width="95" height="13" style="stroke-width: 1px; stroke: rgb(0, 0, 0); stroke-opacity: 0; fill: rgb(0, 0, 0); fill-opacity: 0;"/><text class="annotation-text" text-anchor="middle" x="48.0625" y="10" style="font-family: Inter, 'SF Mono', monospace; font-size: 9px; fill: rgb(170, 170, 170); fill-opacity: 1; white-space: pre;">hanami-api (Ruby)</text></g></g><g class="annotation-arrow-g" style="opacity: 1;"><path d="M1074.58,759.13L1104.58,785.13" style="stroke-width: 1px; stroke: rgb(68, 68, 68); stroke-opacity: 1; stroke-dasharray: 0px, 0px, 39.6989px, 39.6989px;"/></g></g></g></svg>