<svg class="main-svg" xmlns="http://www.w3.org/2000/svg" xmlns:xlink="http://www.w3.org/1999/xlink" width="700" height="600" style="" viewBox="0 0 700 600"><rect x="0" y="0" width="700" height="600" style="fill: rgb(255, 255, 255); fill-opacity: 1;"/><defs id="defs-f24f2e"><g class="clips"><clipPath id="clipf24f2exyplot" class="plotclip"><rect width="449.32" height="356"/></clipPath><clipPath id="clipf24f2exy2plot" class="plotclip"><rect width="449.32" height="356"/></clipPath><clipPath class="axesclip" id="clipf24f2ex"><rect x="80" y="0" width="449.32" height="600"/></clipPath><clipPath class="axesclip" id="clipf24f2ey"><rect x="0" y="100" width="700" height="356"/></clipPath><clipPath class="axesclip" id="clipf24f2exy"><rect x="80" y="100" width="449.32" height="356"/></clipPath><clipPath class="axesclip" id="clipf24f2ey2"><rect x="0" y="100" width="700" height="356"/></clipPath><clipPath class="axesclip" id="clipf24f2exy2"><rect x="80" y="100" width="449.32" height="356"/></clipPath></g><g class="gradients"/><g class="patterns"/></defs><g class="bglayer"/><g class="layer-below"><g class="imagelayer"/><g class="shapelayer"/></g><g class="cartesianlayer"><g class="subplot xy"><g class="layer-subplot"><g class="shapelayer"/><g class="imagelayer"/></g><g class="minor-gridlayer"><g class="x"/><g class="y"/><g class="y2"/></g><g class="gridlayer"><g class="x"/><g class="y"><path class="ygrid crisp" transform="translate(0,392.59)" d="M80,0h449.32" style="stroke: rgb(235, 240, 248); stroke-opacity: 1; stroke-width: 1px;"/><path class="ygrid crisp" transform="translate(0,329.18)" d="M80,0h449.32" style="stroke: rgb(235, 240, 248); stroke-opacity: 1; stroke-width: 1px;"/><path class="ygrid crisp" transform="translate(0,265.77)" d="M80,0h449.32" style="stroke: rgb(235, 240, 248); stroke-opacity: 1; stroke-width: 1px;"/><path class="ygrid crisp" transform="translate(0,202.36)" d="M80,0h449.32" style="stroke: rgb(235, 240, 248); stroke-opacity: 1; stroke-width: 1px;"/><path class="ygrid crisp" transform="translate(0,138.95)" d="M80,0h449.32" style="stroke: rgb(235, 240, 248); stroke-opacity: 1; stroke-width: 1px;"/></g><g class="y2"><path class="y2grid crisp" transform="translate(0,379.85)" d="M80,0h449.32" style="stroke: rgb(235, 240, 248); stroke-opacity: 1; stroke-width: 1px;"/><path class="y2grid crisp" transform="translate(0,326.5)" d="M80,0h449.32" style="stroke: rgb(235, 240, 248); stroke-opacity: 1; stroke-width: 1px;"/><path class="y2grid crisp" transform="translate(0,273.15999999999997)" d="M80,0h449.32" style="stroke: rgb(235, 240, 248); stroke-opacity: 1; stroke-width: 1px;"/><path class="y2grid crisp" transform="translate(0,219.81)" d="M80,0h449.32" style="stroke: rgb(235, 240, 248); stroke-opacity: 1; stroke-width: 1px;"/><path class="y2grid crisp" transform="translate(0,166.45999999999998)" d="M80,0h449.32" style="stroke: rgb(235, 240, 248); stroke-opacity: 1; stroke-width: 1px;"/><path class="y2grid crisp" transform="translate(0,113.11)" d="M80,0h449.32" style="stroke: rgb(235, 240, 248); stroke-opacity: 1; stroke-width: 1px;"/></g></g><g class="zerolinelayer"><path class="yzl zl crisp" transform="translate(0,456)" d="M80,0h449.32" style="stroke: rgb(235, 240, 248); stroke-opacity: 1; stroke-width: 2px;"/><path class="y2zl zl crisp" transform="translate(0,433.2)" d="M80,0h449.32" style="stroke: rgb(235, 240, 248); stroke-opacity: 1; stroke-width: 2px;"/></g><g class="layer-between"><g class="shapelayer"/><g class="imagelayer"/></g><path class="xlines-below"/><path class="ylines-below"/><g class="overlines-below"><path class="xy2-x"/><path class="xy2-y"/></g><g class="xaxislayer-below"/><g class="yaxislayer-below"/><g class="overaxes-below"><g class="xy2-x"/><g class="xy2-y"/></g><g class="overplot"><g class="xy" transform="translate(80,100)" clip-path="url(#clipf24f2exyplot)"><g class="barlayer mlayer"><g class="trace bars" style="opacity: 1;"><g class="points"><g class="point"><path d="M23.52,356V17.8H31.41V356Z" style="vector-effect: none; opacity: 1; stroke-width: 0.5px; fill: rgb(25, 118, 210); fill-opacity: 1; stroke: rgb(255, 255, 255); stroke-opacity: 1;"/><text class="bartext bartext-outside" text-anchor="middle" data-notex="1" x="0" y="0" style="font-family: Roboto, sans-serif; font-size: 12px; fill: rgb(42, 63, 95); fill-opacity: 1; white-space: pre;" transform="translate(27.465,14.155095785440613)scale(0.21496807151979566)">2666.8</text></g><g class="point"><path d="M33.38,356V218.93H41.27V356Z" style="vector-effect: none; opacity: 1; stroke-width: 0.5px; fill: rgb(25, 118, 210); fill-opacity: 1; stroke: rgb(255, 255, 255); stroke-opacity: 1;"/><text class="bartext bartext-outside" text-anchor="middle" data-notex="1" x="0" y="0" style="font-family: Roboto, sans-serif; font-size: 12px; fill: rgb(42, 63, 95); fill-opacity: 1; white-space: pre;" transform="translate(37.325,215.28509578544063)scale(0.21496807151979566)">1080.8</text></g><g class="point"><path d="M43.24,356V301.05H51.13V356Z" style="vector-effect: none; opacity: 1; stroke-width: 0.5px; fill: rgb(25, 118, 210); fill-opacity: 1; stroke: rgb(255, 255, 255); stroke-opacity: 1;"/><text class="bartext bartext-outside" text-anchor="middle" data-notex="1" x="0" y="0" style="font-family: Roboto, sans-serif; font-size: 12px; fill: rgb(42, 63, 95); fill-opacity: 1; white-space: pre;" transform="translate(47.185,297.2618210197711)scale(0.2627263267429761)">433.3</text></g><g class="point"><path d="M53.1,356V303.11H60.99V356Z" style="vector-effect: none; opacity: 1; stroke-width: 0.5px; fill: rgb(25, 118, 210); fill-opacity: 1; stroke: rgb(255, 255, 255); stroke-opacity: 1;"/><text class="bartext bartext-outside" text-anchor="middle" data-notex="1" x="0" y="0" style="font-family: Roboto, sans-serif; font-size: 12px; fill: rgb(42, 63, 95); fill-opacity: 1; white-space: pre;" transform="translate(57.045,299.3218210197711)scale(0.2627263267429761)">417.1</text></g><g class="point"><path d="M62.96,356V330.24H70.85V356Z" style="vector-effect: none; opacity: 1; stroke-width: 0.5px; fill: rgb(25, 118, 210); fill-opacity: 1; stroke: rgb(255, 255, 255); stroke-opacity: 1;"/><text class="bartext bartext-outside" text-anchor="middle" data-notex="1" x="0" y="0" style="font-family: Roboto, sans-serif; font-size: 12px; fill: rgb(42, 63, 95); fill-opacity: 1; white-space: pre;" transform="translate(66.905,326.4518210197711)scale(0.26272632674297586)">203.1</text></g><g class="point"><path d="M72.82,356V330.98H80.71V356Z" style="vector-effect: none; opacity: 1; stroke-width: 0.5px; fill: rgb(25, 118, 210); fill-opacity: 1; stroke: rgb(255, 255, 255); stroke-opacity: 1;"/><text class="bartext bartext-outside" text-anchor="middle" data-notex="1" x="0" y="0" style="font-family: Roboto, sans-serif; font-size: 12px; fill: rgb(42, 63, 95); fill-opacity: 1; white-space: pre;" transform="translate(76.76499999999999,327.1918210197711)scale(0.2627263267429761)">197.3</text></g><g class="point"><path d="M82.68,356V341.56H90.57V356Z" style="vector-effect: none; opacity: 1; stroke-width: 0.5px; fill: rgb(25, 118, 210); fill-opacity: 1; stroke: rgb(255, 255, 255); stroke-opacity: 1;"/><text class="bartext bartext-outside" text-anchor="middle" data-notex="1" x="0" y="0" style="font-family: Roboto, sans-serif; font-size: 12px; fill: rgb(42, 63, 95); fill-opacity: 1; white-space: pre;" transform="translate(86.625,337.74816720257235)scale(0.2706109324758838)">113.9</text></g><g class="point"><path d="M92.54,356V341.7H100.43V356Z" style="vector-effect: none; opacity: 1; stroke-width: 0.5px; fill: rgb(25, 118, 210); fill-opacity: 1; stroke: rgb(255, 255, 255); stroke-opacity: 1;"/><text class="bartext bartext-outside" text-anchor="middle" data-notex="1" x="0" y="0" style="font-family: Roboto, sans-serif; font-size: 12px; fill: rgb(42, 63, 95); fill-opacity: 1; white-space: pre;" transform="translate(96.48500000000001,337.88816720257233)scale(0.27061093247588425)">112.7</text></g><g class="point"><path d="M102.4,356V343.68H110.29V356Z" style="vector-effect: none; opacity: 1; stroke-width: 0.5px; fill: rgb(25, 118, 210); fill-opacity: 1; stroke: rgb(255, 255, 255); stroke-opacity: 1;"/><text class="bartext bartext-outside" text-anchor="middle" data-notex="1" x="0" y="0" style="font-family: Roboto, sans-serif; font-size: 12px; fill: rgb(42, 63, 95); fill-opacity: 1; white-space: pre;" transform="translate(106.345,339.6667023411371)scale(0.33776588628762544)">97.1</text></g><g class="point"><path d="M112.26,356V343.78H120.15V356Z" style="vector-effect: none; opacity: 1; stroke-width: 0.5px; fill: rgb(25, 118, 210); fill-opacity: 1; stroke: rgb(255, 255, 255); stroke-opacity: 1;"/><text class="bartext bartext-outside" text-anchor="middle" data-notex="1" x="0" y="0" style="font-family: Roboto, sans-serif; font-size: 12px; fill: rgb(42, 63, 95); fill-opacity: 1; white-space: pre;" transform="translate(116.20500000000001,339.7667023411371)scale(0.33776588628762544)">96.4</text></g><g class="point"><path d="M122.12,356V343.78H130.01V356Z" style="vector-effect: none; opacity: 1; stroke-width: 0.5px; fill: rgb(25, 118, 210); fill-opacity: 1; stroke: rgb(255, 255, 255); stroke-opacity: 1;"/><text class="bartext bartext-outside" text-anchor="middle" data-notex="1" x="0" y="0" style="font-family: Roboto, sans-serif; font-size: 12px; fill: rgb(42, 63, 95); fill-opacity: 1; white-space: pre;" transform="translate(126.065,339.7667023411371)scale(0.33776588628762483)">96.4</text></g><g class="point"><path d="M131.98,356V343.79H139.87V356Z" style="vector-effect: none; opacity: 1; stroke-width: 0.5px; fill: rgb(25, 118, 210); fill-opacity: 1; stroke: rgb(255, 255, 255); stroke-opacity: 1;"/><text class="bartext bartext-outside" text-anchor="middle" data-notex="1" x="0" y="0" style="font-family: Roboto, sans-serif; font-size: 12px; fill: rgb(42, 63, 95); fill-opacity: 1; white-space: pre;" transform="translate(135.925,339.77670234113714)scale(0.33776588628762605)">96.3</text></g><g class="point"><path d="M141.84,356V343.79H149.73V356Z" style="vector-effect: none; opacity: 1; stroke-width: 0.5px; fill: rgb(25, 118, 210); fill-opacity: 1; stroke: rgb(255, 255, 255); stroke-opacity: 1;"/><text class="bartext bartext-outside" text-anchor="middle" data-notex="1" x="0" y="0" style="font-family: Roboto, sans-serif; font-size: 12px; fill: rgb(42, 63, 95); fill-opacity: 1; white-space: pre;" transform="translate(145.785,339.77670234113714)scale(0.33776588628762483)">96.3</text></g><g class="point"><path d="M151.7,356V343.8H159.59V356Z" style="vector-effect: none; opacity: 1; stroke-width: 0.5px; fill: rgb(25, 118, 210); fill-opacity: 1; stroke: rgb(255, 255, 255); stroke-opacity: 1;"/><text class="bartext bartext-outside" text-anchor="middle" data-notex="1" x="0" y="0" style="font-family: Roboto, sans-serif; font-size: 12px; fill: rgb(42, 63, 95); fill-opacity: 1; white-space: pre;" transform="translate(155.64499999999998,339.78670234113713)scale(0.33776588628762605)">96.2</text></g><g class="point"><path d="M161.56,356V343.8H169.45V356Z" style="vector-effect: none; opacity: 1; stroke-width: 0.5px; fill: rgb(25, 118, 210); fill-opacity: 1; stroke: rgb(255, 255, 255); stroke-opacity: 1;"/><text class="bartext bartext-outside" text-anchor="middle" data-notex="1" x="0" y="0" style="font-family: Roboto, sans-serif; font-size: 12px; fill: rgb(42, 63, 95); fill-opacity: 1; white-space: pre;" transform="translate(165.505,339.78670234113713)scale(0.33776588628762483)">96.2</text></g><g class="point"><path d="M171.42,356V343.8H179.31V356Z" style="vector-effect: none; opacity: 1; stroke-width: 0.5px; fill: rgb(25, 118, 210); fill-opacity: 1; stroke: rgb(255, 255, 255); stroke-opacity: 1;"/><text class="bartext bartext-outside" text-anchor="middle" data-notex="1" x="0" y="0" style="font-family: Roboto, sans-serif; font-size: 12px; fill: rgb(42, 63, 95); fill-opacity: 1; white-space: pre;" transform="translate(175.365,339.78670234113713)scale(0.33776588628762605)">96.2</text></g><g class="point"><path d="M181.28,356V343.8H189.17V356Z" style="vector-effect: none; opacity: 1; stroke-width: 0.5px; fill: rgb(25, 118, 210); fill-opacity: 1; stroke: rgb(255, 255, 255); stroke-opacity: 1;"/><text class="bartext bartext-outside" text-anchor="middle" data-notex="1" x="0" y="0" style="font-family: Roboto, sans-serif; font-size: 12px; fill: rgb(42, 63, 95); fill-opacity: 1; white-space: pre;" transform="translate(185.225,339.78670234113713)scale(0.33776588628762483)">96.2</text></g><g class="point"><path d="M191.14,356V343.8H199.02V356Z" style="vector-effect: none; opacity: 1; stroke-width: 0.5px; fill: rgb(25, 118, 210); fill-opacity: 1; stroke: rgb(255, 255, 255); stroke-opacity: 1;"/><text class="bartext bartext-outside" text-anchor="middle" data-notex="1" x="0" y="0" style="font-family: Roboto, sans-serif; font-size: 12px; fill: rgb(42, 63, 95); fill-opacity: 1; white-space: pre;" transform="translate(195.07999999999998,339.78798662207356)scale(0.3373377926421415)">96.2</text></g><g class="point"><path d="M201,356V343.82H208.88V356Z" style="vector-effect: none; opacity: 1; stroke-width: 0.5px; fill: rgb(25, 118, 210); fill-opacity: 1; stroke: rgb(255, 255, 255); stroke-opacity: 1;"/><text class="bartext bartext-outside" text-anchor="middle" data-notex="1" x="0" y="0" style="font-family: Roboto, sans-serif; font-size: 12px; fill: rgb(42, 63, 95); fill-opacity: 1; white-space: pre;" transform="translate(204.94,339.8079866220736)scale(0.33733779264214026)">96.1</text></g><g class="point"><path d="M210.86,356V344.18H218.74V356Z" style="vector-effect: none; opacity: 1; stroke-width: 0.5px; fill: rgb(25, 118, 210); fill-opacity: 1; stroke: rgb(255, 255, 255); stroke-opacity: 1;"/><text class="bartext bartext-outside" text-anchor="middle" data-notex="1" x="0" y="0" style="font-family: Roboto, sans-serif; font-size: 12px; fill: rgb(42, 63, 95); fill-opacity: 1; white-space: pre;" transform="translate(214.8,340.1679866220736)scale(0.33733779264214026)">93.2</text></g><g class="point"><path d="M220.72,356V344.32H228.6V356Z" style="vector-effect: none; opacity: 1; stroke-width: 0.5px; fill: rgb(25, 118, 210); fill-opacity: 1; stroke: rgb(255, 255, 255); stroke-opacity: 1;"/><text class="bartext bartext-outside" text-anchor="middle" data-notex="1" x="0" y="0" style="font-family: Roboto, sans-serif; font-size: 12px; fill: rgb(42, 63, 95); fill-opacity: 1; white-space: pre;" transform="translate(224.66,340.3079866220736)scale(0.33733779264214026)">92.1</text></g><g class="point"><path d="M230.58,356V344.53H238.46V356Z" style="vector-effect: none; opacity: 1; stroke-width: 0.5px; fill: rgb(25, 118, 210); fill-opacity: 1; stroke: rgb(255, 255, 255); stroke-opacity: 1;"/><text class="bartext bartext-outside" text-anchor="middle" data-notex="1" x="0" y="0" style="font-family: Roboto, sans-serif; font-size: 12px; fill: rgb(42, 63, 95); fill-opacity: 1; white-space: pre;" transform="translate(234.52,340.5179866220736)scale(0.33733779264214026)">90.4</text></g><g class="point"><path d="M240.44,356V346.13H248.32V356Z" style="vector-effect: none; opacity: 1; stroke-width: 0.5px; fill: rgb(25, 118, 210); fill-opacity: 1; stroke: rgb(255, 255, 255); stroke-opacity: 1;"/><text class="bartext bartext-outside" text-anchor="middle" data-notex="1" x="0" y="0" style="font-family: Roboto, sans-serif; font-size: 12px; fill: rgb(42, 63, 95); fill-opacity: 1; white-space: pre;" transform="translate(244.38,342.1179866220736)scale(0.33733779264214026)">77.8</text></g><g class="point"><path d="M250.3,356V346.57H258.18V356Z" style="vector-effect: none; opacity: 1; stroke-width: 0.5px; fill: rgb(25, 118, 210); fill-opacity: 1; stroke: rgb(255, 255, 255); stroke-opacity: 1;"/><text class="bartext bartext-outside" text-anchor="middle" data-notex="1" x="0" y="0" style="font-family: Roboto, sans-serif; font-size: 12px; fill: rgb(42, 63, 95); fill-opacity: 1; white-space: pre;" transform="translate(254.24,342.5579866220736)scale(0.33733779264214026)">74.3</text></g><g class="point"><path d="M260.15,356V346.84H268.04V356Z" style="vector-effect: none; opacity: 1; stroke-width: 0.5px; fill: rgb(25, 118, 210); fill-opacity: 1; stroke: rgb(255, 255, 255); stroke-opacity: 1;"/><text class="bartext bartext-outside" text-anchor="middle" data-notex="1" x="0" y="0" style="font-family: Roboto, sans-serif; font-size: 12px; fill: rgb(42, 63, 95); fill-opacity: 1; white-space: pre;" transform="translate(264.095,342.8267023411371)scale(0.33776588628762727)">72.3</text></g><g class="point"><path d="M270.01,356V347.86H277.9V356Z" style="vector-effect: none; opacity: 1; stroke-width: 0.5px; fill: rgb(25, 118, 210); fill-opacity: 1; stroke: rgb(255, 255, 255); stroke-opacity: 1;"/><text class="bartext bartext-outside" text-anchor="middle" data-notex="1" x="0" y="0" style="font-family: Roboto, sans-serif; font-size: 12px; fill: rgb(42, 63, 95); fill-opacity: 1; white-space: pre;" transform="translate(273.955,343.84670234113713)scale(0.33776588628762483)">64.2</text></g><g class="point"><path d="M279.87,356V349.11H287.76V356Z" style="vector-effect: none; opacity: 1; stroke-width: 0.5px; fill: rgb(25, 118, 210); fill-opacity: 1; stroke: rgb(255, 255, 255); stroke-opacity: 1;"/><text class="bartext bartext-outside" text-anchor="middle" data-notex="1" x="0" y="0" style="font-family: Roboto, sans-serif; font-size: 12px; fill: rgb(42, 63, 95); fill-opacity: 1; white-space: pre;" transform="translate(283.815,345.09670234113713)scale(0.33776588628762483)">54.3</text></g><g class="point"><path d="M289.73,356V349.18H297.62V356Z" style="vector-effect: none; opacity: 1; stroke-width: 0.5px; fill: rgb(25, 118, 210); fill-opacity: 1; stroke: rgb(255, 255, 255); stroke-opacity: 1;"/><text class="bartext bartext-outside" text-anchor="middle" data-notex="1" x="0" y="0" style="font-family: Roboto, sans-serif; font-size: 12px; fill: rgb(42, 63, 95); fill-opacity: 1; white-space: pre;" transform="translate(293.675,345.1667023411371)scale(0.33776588628762483)">53.7</text></g><g class="point"><path d="M299.59,356V349.2H307.48V356Z" style="vector-effect: none; opacity: 1; stroke-width: 0.5px; fill: rgb(25, 118, 210); fill-opacity: 1; stroke: rgb(255, 255, 255); stroke-opacity: 1;"/><text class="bartext bartext-outside" text-anchor="middle" data-notex="1" x="0" y="0" style="font-family: Roboto, sans-serif; font-size: 12px; fill: rgb(42, 63, 95); fill-opacity: 1; white-space: pre;" transform="translate(303.53499999999997,345.1867023411371)scale(0.33776588628762727)">53.6</text></g><g class="point"><path d="M309.45,356V349.23H317.34V356Z" style="vector-effect: none; opacity: 1; stroke-width: 0.5px; fill: rgb(25, 118, 210); fill-opacity: 1; stroke: rgb(255, 255, 255); stroke-opacity: 1;"/><text class="bartext bartext-outside" text-anchor="middle" data-notex="1" x="0" y="0" style="font-family: Roboto, sans-serif; font-size: 12px; fill: rgb(42, 63, 95); fill-opacity: 1; white-space: pre;" transform="translate(313.395,345.21670234113714)scale(0.33776588628762483)">53.4</text></g><g class="point"><path d="M319.31,356V349.23H327.2V356Z" style="vector-effect: none; opacity: 1; stroke-width: 0.5px; fill: rgb(25, 118, 210); fill-opacity: 1; stroke: rgb(255, 255, 255); stroke-opacity: 1;"/><text class="bartext bartext-outside" text-anchor="middle" data-notex="1" x="0" y="0" style="font-family: Roboto, sans-serif; font-size: 12px; fill: rgb(42, 63, 95); fill-opacity: 1; white-space: pre;" transform="translate(323.255,345.21670234113714)scale(0.33776588628762483)">53.4</text></g><g class="point"><path d="M329.17,356V349.24H337.06V356Z" style="vector-effect: none; opacity: 1; stroke-width: 0.5px; fill: rgb(25, 118, 210); fill-opacity: 1; stroke: rgb(255, 255, 255); stroke-opacity: 1;"/><text class="bartext bartext-outside" text-anchor="middle" data-notex="1" x="0" y="0" style="font-family: Roboto, sans-serif; font-size: 12px; fill: rgb(42, 63, 95); fill-opacity: 1; white-space: pre;" transform="translate(333.115,345.2267023411371)scale(0.33776588628762483)">53.3</text></g><g class="point"><path d="M339.03,356V349.25H346.92V356Z" style="vector-effect: none; opacity: 1; stroke-width: 0.5px; fill: rgb(25, 118, 210); fill-opacity: 1; stroke: rgb(255, 255, 255); stroke-opacity: 1;"/><text class="bartext bartext-outside" text-anchor="middle" data-notex="1" x="0" y="0" style="font-family: Roboto, sans-serif; font-size: 12px; fill: rgb(42, 63, 95); fill-opacity: 1; white-space: pre;" transform="translate(342.975,345.2367023411371)scale(0.33776588628762727)">53.2</text></g><g class="point"><path d="M348.89,356V349.26H356.78V356Z" style="vector-effect: none; opacity: 1; stroke-width: 0.5px; fill: rgb(25, 118, 210); fill-opacity: 1; stroke: rgb(255, 255, 255); stroke-opacity: 1;"/><text class="bartext bartext-outside" text-anchor="middle" data-notex="1" x="0" y="0" style="font-family: Roboto, sans-serif; font-size: 12px; fill: rgb(42, 63, 95); fill-opacity: 1; white-space: pre;" transform="translate(352.835,345.2467023411371)scale(0.33776588628762483)">53.1</text></g><g class="point"><path d="M358.75,356V349.26H366.64V356Z" style="vector-effect: none; opacity: 1; stroke-width: 0.5px; fill: rgb(25, 118, 210); fill-opacity: 1; stroke: rgb(255, 255, 255); stroke-opacity: 1;"/><text class="bartext bartext-outside" text-anchor="middle" data-notex="1" x="0" y="0" style="font-family: Roboto, sans-serif; font-size: 12px; fill: rgb(42, 63, 95); fill-opacity: 1; white-space: pre;" transform="translate(362.695,345.2467023411371)scale(0.33776588628762483)">53.1</text></g><g class="point"><path d="M368.61,356V349.31H376.5V356Z" style="vector-effect: none; opacity: 1; stroke-width: 0.5px; fill: rgb(25, 118, 210); fill-opacity: 1; stroke: rgb(255, 255, 255); stroke-opacity: 1;"/><text class="bartext bartext-outside" text-anchor="middle" data-notex="1" x="0" y="0" style="font-family: Roboto, sans-serif; font-size: 12px; fill: rgb(42, 63, 95); fill-opacity: 1; white-space: pre;" transform="translate(372.555,345.2967023411371)scale(0.33776588628762483)">52.7</text></g><g class="point"><path d="M378.47,356V349.37H386.36V356Z" style="vector-effect: none; opacity: 1; stroke-width: 0.5px; fill: rgb(25, 118, 210); fill-opacity: 1; stroke: rgb(255, 255, 255); stroke-opacity: 1;"/><text class="bartext bartext-outside" text-anchor="middle" data-notex="1" x="0" y="0" style="font-family: Roboto, sans-serif; font-size: 12px; fill: rgb(42, 63, 95); fill-opacity: 1; white-space: pre;" transform="translate(382.415,345.3567023411371)scale(0.33776588628762483)">52.3</text></g><g class="point"><path d="M388.33,356V349.49H396.22V356Z" style="vector-effect: none; opacity: 1; stroke-width: 0.5px; fill: rgb(25, 118, 210); fill-opacity: 1; stroke: rgb(255, 255, 255); stroke-opacity: 1;"/><text class="bartext bartext-outside" text-anchor="middle" data-notex="1" x="0" y="0" style="font-family: Roboto, sans-serif; font-size: 12px; fill: rgb(42, 63, 95); fill-opacity: 1; white-space: pre;" transform="translate(392.275,345.4767023411371)scale(0.33776588628762727)">51.3</text></g><g class="point"><path d="M398.19,356V351.8H406.08V356Z" style="vector-effect: none; opacity: 1; stroke-width: 0.5px; fill: rgb(25, 118, 210); fill-opacity: 1; stroke: rgb(255, 255, 255); stroke-opacity: 1;"/><text class="bartext bartext-outside" text-anchor="middle" data-notex="1" x="0" y="0" style="font-family: Roboto, sans-serif; font-size: 12px; fill: rgb(42, 63, 95); fill-opacity: 1; white-space: pre;" transform="translate(402.135,347.78670234113713)scale(0.33776588628762483)">33.1</text></g><g class="point"><path d="M408.05,356V353.65H415.94V356Z" style="vector-effect: none; opacity: 1; stroke-width: 0.5px; fill: rgb(25, 118, 210); fill-opacity: 1; stroke: rgb(255, 255, 255); stroke-opacity: 1;"/><text class="bartext bartext-outside" text-anchor="middle" data-notex="1" x="0" y="0" style="font-family: Roboto, sans-serif; font-size: 12px; fill: rgb(42, 63, 95); fill-opacity: 1; white-space: pre;" transform="translate(411.995,349.6367023411371)scale(0.33776588628762483)">18.5</text></g><g class="point"><path d="M417.91,356V354.23H425.8V356Z" style="vector-effect: none; opacity: 1; stroke-width: 0.5px; fill: rgb(25, 118, 210); fill-opacity: 1; stroke: rgb(255, 255, 255); stroke-opacity: 1;"/><text class="bartext bartext-outside" text-anchor="middle" data-notex="1" x="0" y="0" style="font-family: Roboto, sans-serif; font-size: 12px; fill: rgb(42, 63, 95); fill-opacity: 1; white-space: pre;" transform="translate(421.855,350.21670234113714)scale(0.33776588628762483)">14.0</text></g></g></g></g></g><g class="xy2" transform="translate(80,100)" clip-path="url(#clipf24f2exy2plot)"><g class="scatterlayer mlayer"><g class="trace scatter trace138da9" style="stroke-miterlimit: 2; opacity: 1;"><g class="fills"/><g class="errorbars"/><g class="lines"><path class="js-line" d="M27.47,50.37L37.33,210.02L47.19,208.96L57.05,45.86L66.9,209.34L76.76,207.94L86.62,191.55L96.48,191.97L106.34,333.2L204.94,333.2L214.8,197.19L224.66,210.34L234.52,195.84L244.38,207.47L254.24,208.97L264.1,208.59L273.96,210.71L283.82,214.62L293.68,333.2L402.13,333.2L411.99,22.8L421.85,34.85" style="vector-effect: none; fill: none; stroke: rgb(245, 124, 0); stroke-opacity: 1; stroke-width: 2px; opacity: 1;"/></g><g class="points"><path class="point" transform="translate(27.47,50.37)" d="M4,0A4,4 0 1,1 0,-4A4,4 0 0,1 4,0Z" style="opacity: 1; stroke-width: 0px; fill: rgb(245, 124, 0); fill-opacity: 1;"/><path class="point" transform="translate(37.33,210.02)" d="M4,0A4,4 0 1,1 0,-4A4,4 0 0,1 4,0Z" style="opacity: 1; stroke-width: 0px; fill: rgb(245, 124, 0); fill-opacity: 1;"/><path class="point" transform="translate(47.19,208.96)" d="M4,0A4,4 0 1,1 0,-4A4,4 0 0,1 4,0Z" style="opacity: 1; stroke-width: 0px; fill: rgb(245, 124, 0); fill-opacity: 1;"/><path class="point" transform="translate(57.05,45.86)" d="M4,0A4,4 0 1,1 0,-4A4,4 0 0,1 4,0Z" style="opacity: 1; stroke-width: 0px; fill: rgb(245, 124, 0); fill-opacity: 1;"/><path class="point" transform="translate(66.9,209.34)" d="M4,0A4,4 0 1,1 0,-4A4,4 0 0,1 4,0Z" style="opacity: 1; stroke-width: 0px; fill: rgb(245, 124, 0); fill-opacity: 1;"/><path class="point" transform="translate(76.76,207.94)" d="M4,0A4,4 0 1,1 0,-4A4,4 0 0,1 4,0Z" style="opacity: 1; stroke-width: 0px; fill: rgb(245, 124, 0); fill-opacity: 1;"/><path class="point" transform="translate(86.62,191.55)" d="M4,0A4,4 0 1,1 0,-4A4,4 0 0,1 4,0Z" style="opacity: 1; stroke-width: 0px; fill: rgb(245, 124, 0); fill-opacity: 1;"/><path class="point" transform="translate(96.48,191.97)" d="M4,0A4,4 0 1,1 0,-4A4,4 0 0,1 4,0Z" style="opacity: 1; stroke-width: 0px; fill: rgb(245, 124, 0); fill-opacity: 1;"/><path class="point" transform="translate(106.34,333.2)" d="M4,0A4,4 0 1,1 0,-4A4,4 0 0,1 4,0Z" style="opacity: 1; stroke-width: 0px; fill: rgb(245, 124, 0); fill-opacity: 1;"/><path class="point" transform="translate(116.2,333.2)" d="M4,0A4,4 0 1,1 0,-4A4,4 0 0,1 4,0Z" style="opacity: 1; stroke-width: 0px; fill: rgb(245, 124, 0); fill-opacity: 1;"/><path class="point" transform="translate(126.06,333.2)" d="M4,0A4,4 0 1,1 0,-4A4,4 0 0,1 4,0Z" style="opacity: 1; stroke-width: 0px; fill: rgb(245, 124, 0); fill-opacity: 1;"/><path class="point" transform="translate(135.92,333.2)" d="M4,0A4,4 0 1,1 0,-4A4,4 0 0,1 4,0Z" style="opacity: 1; stroke-width: 0px; fill: rgb(245, 124, 0); fill-opacity: 1;"/><path class="point" transform="translate(145.78,333.2)" d="M4,0A4,4 0 1,1 0,-4A4,4 0 0,1 4,0Z" style="opacity: 1; stroke-width: 0px; fill: rgb(245, 124, 0); fill-opacity: 1;"/><path class="point" transform="translate(155.64,333.2)" d="M4,0A4,4 0 1,1 0,-4A4,4 0 0,1 4,0Z" style="opacity: 1; stroke-width: 0px; fill: rgb(245, 124, 0); fill-opacity: 1;"/><path class="point" transform="translate(165.5,333.2)" d="M4,0A4,4 0 1,1 0,-4A4,4 0 0,1 4,0Z" style="opacity: 1; stroke-width: 0px; fill: rgb(245, 124, 0); fill-opacity: 1;"/><path class="point" transform="translate(175.36,333.2)" d="M4,0A4,4 0 1,1 0,-4A4,4 0 0,1 4,0Z" style="opacity: 1; stroke-width: 0px; fill: rgb(245, 124, 0); fill-opacity: 1;"/><path class="point" transform="translate(185.22,333.2)" d="M4,0A4,4 0 1,1 0,-4A4,4 0 0,1 4,0Z" style="opacity: 1; stroke-width: 0px; fill: rgb(245, 124, 0); fill-opacity: 1;"/><path class="point" transform="translate(195.08,333.2)" d="M4,0A4,4 0 1,1 0,-4A4,4 0 0,1 4,0Z" style="opacity: 1; stroke-width: 0px; fill: rgb(245, 124, 0); fill-opacity: 1;"/><path class="point" transform="translate(204.94,333.2)" d="M4,0A4,4 0 1,1 0,-4A4,4 0 0,1 4,0Z" style="opacity: 1; stroke-width: 0px; fill: rgb(245, 124, 0); fill-opacity: 1;"/><path class="point" transform="translate(214.8,197.19)" d="M4,0A4,4 0 1,1 0,-4A4,4 0 0,1 4,0Z" style="opacity: 1; stroke-width: 0px; fill: rgb(245, 124, 0); fill-opacity: 1;"/><path class="point" transform="translate(224.66,210.34)" d="M4,0A4,4 0 1,1 0,-4A4,4 0 0,1 4,0Z" style="opacity: 1; stroke-width: 0px; fill: rgb(245, 124, 0); fill-opacity: 1;"/><path class="point" transform="translate(234.52,195.84)" d="M4,0A4,4 0 1,1 0,-4A4,4 0 0,1 4,0Z" style="opacity: 1; stroke-width: 0px; fill: rgb(245, 124, 0); fill-opacity: 1;"/><path class="point" transform="translate(244.38,207.47)" d="M4,0A4,4 0 1,1 0,-4A4,4 0 0,1 4,0Z" style="opacity: 1; stroke-width: 0px; fill: rgb(245, 124, 0); fill-opacity: 1;"/><path class="point" transform="translate(254.24,208.97)" d="M4,0A4,4 0 1,1 0,-4A4,4 0 0,1 4,0Z" style="opacity: 1; stroke-width: 0px; fill: rgb(245, 124, 0); fill-opacity: 1;"/><path class="point" transform="translate(264.1,208.59)" d="M4,0A4,4 0 1,1 0,-4A4,4 0 0,1 4,0Z" style="opacity: 1; stroke-width: 0px; fill: rgb(245, 124, 0); fill-opacity: 1;"/><path class="point" transform="translate(273.96,210.71)" d="M4,0A4,4 0 1,1 0,-4A4,4 0 0,1 4,0Z" style="opacity: 1; stroke-width: 0px; fill: rgb(245, 124, 0); fill-opacity: 1;"/><path class="point" transform="translate(283.82,214.62)" d="M4,0A4,4 0 1,1 0,-4A4,4 0 0,1 4,0Z" style="opacity: 1; stroke-width: 0px; fill: rgb(245, 124, 0); fill-opacity: 1;"/><path class="point" transform="translate(293.68,333.2)" d="M4,0A4,4 0 1,1 0,-4A4,4 0 0,1 4,0Z" style="opacity: 1; stroke-width: 0px; fill: rgb(245, 124, 0); fill-opacity: 1;"/><path class="point" transform="translate(303.54,333.2)" d="M4,0A4,4 0 1,1 0,-4A4,4 0 0,1 4,0Z" style="opacity: 1; stroke-width: 0px; fill: rgb(245, 124, 0); fill-opacity: 1;"/><path class="point" transform="translate(313.4,333.2)" d="M4,0A4,4 0 1,1 0,-4A4,4 0 0,1 4,0Z" style="opacity: 1; stroke-width: 0px; fill: rgb(245, 124, 0); fill-opacity: 1;"/><path class="point" transform="translate(323.26,333.2)" d="M4,0A4,4 0 1,1 0,-4A4,4 0 0,1 4,0Z" style="opacity: 1; stroke-width: 0px; fill: rgb(245, 124, 0); fill-opacity: 1;"/><path class="point" transform="translate(333.12,333.2)" d="M4,0A4,4 0 1,1 0,-4A4,4 0 0,1 4,0Z" style="opacity: 1; stroke-width: 0px; fill: rgb(245, 124, 0); fill-opacity: 1;"/><path class="point" transform="translate(342.98,333.2)" d="M4,0A4,4 0 1,1 0,-4A4,4 0 0,1 4,0Z" style="opacity: 1; stroke-width: 0px; fill: rgb(245, 124, 0); fill-opacity: 1;"/><path class="point" transform="translate(352.84,333.2)" d="M4,0A4,4 0 1,1 0,-4A4,4 0 0,1 4,0Z" style="opacity: 1; stroke-width: 0px; fill: rgb(245, 124, 0); fill-opacity: 1;"/><path class="point" transform="translate(362.7,333.2)" d="M4,0A4,4 0 1,1 0,-4A4,4 0 0,1 4,0Z" style="opacity: 1; stroke-width: 0px; fill: rgb(245, 124, 0); fill-opacity: 1;"/><path class="point" transform="translate(372.56,333.2)" d="M4,0A4,4 0 1,1 0,-4A4,4 0 0,1 4,0Z" style="opacity: 1; stroke-width: 0px; fill: rgb(245, 124, 0); fill-opacity: 1;"/><path class="point" transform="translate(382.42,333.2)" d="M4,0A4,4 0 1,1 0,-4A4,4 0 0,1 4,0Z" style="opacity: 1; stroke-width: 0px; fill: rgb(245, 124, 0); fill-opacity: 1;"/><path class="point" transform="translate(392.27,333.2)" d="M4,0A4,4 0 1,1 0,-4A4,4 0 0,1 4,0Z" style="opacity: 1; stroke-width: 0px; fill: rgb(245, 124, 0); fill-opacity: 1;"/><path class="point" transform="translate(402.13,333.2)" d="M4,0A4,4 0 1,1 0,-4A4,4 0 0,1 4,0Z" style="opacity: 1; stroke-width: 0px; fill: rgb(245, 124, 0); fill-opacity: 1;"/><path class="point" transform="translate(411.99,22.8)" d="M4,0A4,4 0 1,1 0,-4A4,4 0 0,1 4,0Z" style="opacity: 1; stroke-width: 0px; fill: rgb(245, 124, 0); fill-opacity: 1;"/><path class="point" transform="translate(421.85,34.85)" d="M4,0A4,4 0 1,1 0,-4A4,4 0 0,1 4,0Z" style="opacity: 1; stroke-width: 0px; fill: rgb(245, 124, 0); fill-opacity: 1;"/></g><g class="text"/></g></g></g></g><g class="zerolinelayer-above"/><path class="xlines-above crisp" d="M0,0" style="fill: none;"/><path class="ylines-above crisp" d="M0,0" style="fill: none;"/><g class="overlines-above"><path class="xy2-x crisp" d="M0,0" style="fill: none;"/><path class="xy2-y crisp" d="M0,0" style="fill: none;"/></g><g class="xaxislayer-above"><g class="xtick"><text text-anchor="end" x="0" y="469" transform="translate(107.47,0) rotate(-45,0,463)" style="font-family: Roboto, sans-serif; font-size: 12px; fill: rgb(42, 63, 95); fill-opacity: 1; white-space: pre;">spikard-bun-raw</text></g><g class="xtick"><text text-anchor="end" x="0" y="469" transform="translate(127.19,0) rotate(-45,0,463)" style="font-family: Roboto, sans-serif; font-size: 12px; fill: rgb(42, 63, 95); fill-opacity: 1; white-space: pre;">phalcon-validation</text></g><g class="xtick"><text text-anchor="end" x="0" y="469" transform="translate(146.9,0) rotate(-45,0,463)" style="font-family: Roboto, sans-serif; font-size: 12px; fill: rgb(42, 63, 95); fill-opacity: 1; white-space: pre;">spikard-wasm-validation</text></g><g class="xtick"><text text-anchor="end" x="0" y="469" transform="translate(166.62,0) rotate(-45,0,463)" style="font-family: Roboto, sans-serif; font-size: 12px; fill: rgb(42, 63, 95); fill-opacity: 1; white-space: pre;">hanami-api-raw</text></g><g class="xtick"><text text-anchor="end" x="0" y="469" transform="translate(186.34,0) rotate(-45,0,463)" style="font-family: Roboto, sans-serif; font-size: 12px; fill: rgb(42, 63, 95); fill-opacity: 1; white-space: pre;">morojs-validation</text></g><g class="xtick"><text text-anchor="end" x="0" y="469" transform="translate(206.06,0) rotate(-45,0,463)" style="font-family: Roboto, sans-serif; font-size: 12px; fill: rgb(42, 63, 95); fill-opacity: 1; white-space: pre;">morojs-raw</text></g><g class="xtick"><text text-anchor="end" x="0" y="469" transform="translate(225.78,0) rotate(-45,0,463)" style="font-family: Roboto, sans-serif; font-size: 12px; fill: rgb(42, 63, 95); fill-opacity: 1; white-space: pre;">fastify-raw</text></g><g class="xtick"><text text-anchor="end" x="0" y="469" transform="translate(245.5,0) rotate(-45,0,463)" style="font-family: Roboto, sans-serif; font-size: 12px; fill: rgb(42, 63, 95); fill-opacity: 1; white-space: pre;">hono-raw</text></g><g class="xtick"><text text-anchor="end" x="0" y="469" transform="translate(265.22,0) rotate(-45,0,463)" style="font-family: Roboto, sans-serif; font-size: 12px; fill: rgb(42, 63, 95); fill-opacity: 1; white-space: pre;">kito-validation</text></g><g class="xtick"><text text-anchor="end" x="0" y="469" transform="translate(284.94,0) rotate(-45,0,463)" style="font-family: Roboto, sans-serif; font-size: 12px; fill: rgb(42, 63, 95); fill-opacity: 1; white-space: pre;">express-validation</text></g><g class="xtick"><text text-anchor="end" x="0" y="469" transform="translate(304.65999999999997,0) rotate(-45,0,463)" style="font-family: Roboto, sans-serif; font-size: 12px; fill: rgb(42, 63, 95); fill-opacity: 1; white-space: pre;">spikard-ruby-raw</text></g><g class="xtick"><text text-anchor="end" x="0" y="469" transform="translate(324.38,0) rotate(-45,0,463)" style="font-family: Roboto, sans-serif; font-size: 12px; fill: rgb(42, 63, 95); fill-opacity: 1; white-space: pre;">elysia-validation</text></g><g class="xtick"><text text-anchor="end" x="0" y="469" transform="translate(344.1,0) rotate(-45,0,463)" style="font-family: Roboto, sans-serif; font-size: 12px; fill: rgb(42, 63, 95); fill-opacity: 1; white-space: pre;">spikard-php-raw</text></g><g class="xtick"><text text-anchor="end" x="0" y="469" transform="translate(363.82,0) rotate(-45,0,463)" style="font-family: Roboto, sans-serif; font-size: 12px; fill: rgb(42, 63, 95); fill-opacity: 1; white-space: pre;">trongate-raw</text></g><g class="xtick"><text text-anchor="end" x="0" y="469" transform="translate(383.54,0) rotate(-45,0,463)" style="font-family: Roboto, sans-serif; font-size: 12px; fill: rgb(42, 63, 95); fill-opacity: 1; white-space: pre;">spikard-python-validation</text></g><g class="xtick"><text text-anchor="end" x="0" y="469" transform="translate(403.26,0) rotate(-45,0,463)" style="font-family: Roboto, sans-serif; font-size: 12px; fill: rgb(42, 63, 95); fill-opacity: 1; white-space: pre;">litestar-uvicorn-validation</text></g><g class="xtick"><text text-anchor="end" x="0" y="469" transform="translate(422.98,0) rotate(-45,0,463)" style="font-family: Roboto, sans-serif; font-size: 12px; fill: rgb(42, 63, 95); fill-opacity: 1; white-space: pre;">litestar-uvicorn-raw</text></g><g class="xtick"><text text-anchor="end" x="0" y="469" transform="translate(442.7,0) rotate(-45,0,463)" style="font-family: Roboto, sans-serif; font-size: 12px; fill: rgb(42, 63, 95); fill-opacity: 1; white-space: pre;">robyn-raw</text></g><g class="xtick"><text text-anchor="end" x="0" y="469" transform="translate(462.42,0) rotate(-45,0,463)" style="font-family: Roboto, sans-serif; font-size: 12px; fill: rgb(42, 63, 95); fill-opacity: 1; white-space: pre;">fastapi-granian-raw</text></g><g class="xtick"><text text-anchor="end" x="0" y="469" transform="translate(482.13,0) rotate(-45,0,463)" style="font-family: Roboto, sans-serif; font-size: 12px; fill: rgb(42, 63, 95); fill-opacity: 1; white-space: pre;">kito-raw</text></g><g class="xtick"><text text-anchor="end" x="0" y="469" transform="translate(501.85,0) rotate(-45,0,463)" style="font-family: Roboto, sans-serif; font-size: 12px; fill: rgb(42, 63, 95); fill-opacity: 1; white-space: pre;">spikard-rust-raw</text></g></g><g class="yaxislayer-above"><g class="ytick"><text text-anchor="end" x="79" y="4.199999999999999" transform="translate(0,456)" style="font-family: Roboto, sans-serif; font-size: 12px; fill: rgb(42, 63, 95); fill-opacity: 1; white-space: pre;">0</text></g><g class="ytick"><text text-anchor="end" x="79" y="4.199999999999999" style="font-family: Roboto, sans-serif; font-size: 12px; fill: rgb(42, 63, 95); fill-opacity: 1; white-space: pre;" transform="translate(0,392.59)">500</text></g><g class="ytick"><text text-anchor="end" x="79" y="4.199999999999999" style="font-family: Roboto, sans-serif; font-size: 12px; fill: rgb(42, 63, 95); fill-opacity: 1; white-space: pre;" transform="translate(0,329.18)">1000</text></g><g class="ytick"><text text-anchor="end" x="79" y="4.199999999999999" style="font-family: Roboto, sans-serif; font-size: 12px; fill: rgb(42, 63, 95); fill-opacity: 1; white-space: pre;" transform="translate(0,265.77)">1500</text></g><g class="ytick"><text text-anchor="end" x="79" y="4.199999999999999" style="font-family: Roboto, sans-serif; font-size: 12px; fill: rgb(42, 63, 95); fill-opacity: 1; white-space: pre;" transform="translate(0,202.36)">2000</text></g><g class="ytick"><text text-anchor="end" x="79" y="4.199999999999999" style="font-family: Roboto, sans-serif; font-size: 12px; fill: rgb(42, 63, 95); fill-opacity: 1; white-space: pre;" transform="translate(0,138.95)">2500</text></g></g><g class="overaxes-above"><g class="xy2-x"/><g class="xy2-y"><g class="y2tick"><text text-anchor="start" x="530.3199999999999" y="4.199999999999999" transform="translate(0,433.2)" style="font-family: Roboto, sans-serif; font-size: 12px; fill: rgb(42, 63, 95); fill-opacity: 1; white-space: pre;">0</text></g><g class="y2tick"><text text-anchor="start" x="530.3199999999999" y="4.199999999999999" style="font-family: Roboto, sans-serif; font-size: 12px; fill: rgb(42, 63, 95); fill-opacity: 1; white-space: pre;" transform="translate(0,379.85)">20</text></g><g class="y2tick"><text text-anchor="start" x="530.3199999999999" y="4.199999999999999" style="font-family: Roboto, sans-serif; font-size: 12px; fill: rgb(42, 63, 95); fill-opacity: 1; white-space: pre;" transform="translate(0,326.5)">40</text></g><g class="y2tick"><text text-anchor="start" x="530.3199999999999" y="4.199999999999999" style="font-family: Roboto, sans-serif; font-size: 12px; fill: rgb(42, 63, 95); fill-opacity: 1; white-space: pre;" transform="translate(0,273.15999999999997)">60</text></g><g class="y2tick"><text text-anchor="start" x="530.3199999999999" y="4.199999999999999" style="font-family: Roboto, sans-serif; font-size: 12px; fill: rgb(42, 63, 95); fill-opacity: 1; white-space: pre;" transform="translate(0,219.81)">80</text></g><g class="y2tick"><text text-anchor="start" x="530.3199999999999" y="4.199999999999999" style="font-family: Roboto, sans-serif; font-size: 12px; fill: rgb(42, 63, 95); fill-opacity: 1; white-space: pre;" transform="translate(0,166.45999999999998)">100</text></g><g class="y2tick"><text text-anchor="start" x="530.3199999999999" y="4.199999999999999" style="font-family: Roboto, sans-serif; font-size: 12px; fill: rgb(42, 63, 95); fill-opacity: 1; white-space: pre;" transform="translate(0,113.11)">120</text></g></g></g></g><g class="subplot xy2"/></g><g class="polarlayer"/><g class="smithlayer"/><g class="ternarylayer"/><g class="geolayer"/><g class="funnelarealayer"/><g class="pielayer"/><g class="iciclelayer"/><g class="treemaplayer"/><g class="sunburstlayer"/><g class="glimages"/><defs id="topdefs-f24f2e"><g class="clips"/><clipPath id="legendf24f2e"><rect width="120" height="48" x="0" y="0"/></clipPath></defs><g class="layer-above"><g class="imagelayer"/><g class="shapelayer"/></g><g class="infolayer"><g class="legend" pointer-events="all" transform="translate(567.56,100)"><rect class="bg" shape-rendering="crispEdges" style="stroke: rgb(68, 68, 68); stroke-opacity: 1; fill: rgb(255, 255, 255); fill-opacity: 1; stroke-width: 0px;" width="120" height="48" x="0" y="0"/><g class="scrollbox" transform="" clip-path="url(#legendf24f2e)"><g class="groups"><g class="traces" transform="translate(0,14.5)" style="opacity: 1;"><text class="legendtext" text-anchor="start" x="40" y="4.680000000000001" style="font-family: Roboto, sans-serif; font-size: 12px; fill: rgb(42, 63, 95); fill-opacity: 1; white-space: pre;">Peak Memory</text><g class="layers" style="opacity: 1;"><g class="legendfill"/><g class="legendlines"/><g class="legendsymbols"><g class="legendpoints"><path class="legendundefined" d="M6,6H-6V-6H6Z" transform="translate(20,0)" style="stroke-width: 0.5px; fill: rgb(25, 118, 210); fill-opacity: 1; stroke: rgb(255, 255, 255); stroke-opacity: 1;"/></g></g></g><rect class="legendtoggle" x="0" y="-9.5" width="114.03125" height="19" style="fill: rgb(0, 0, 0); fill-opacity: 0;"/></g><g class="traces" transform="translate(0,33.5)" style="opacity: 1;"><text class="legendtext" text-anchor="start" x="40" y="4.680000000000001" style="font-family: Roboto, sans-serif; font-size: 12px; fill: rgb(42, 63, 95); fill-opacity: 1; white-space: pre;">Avg CPU</text><g class="layers" style="opacity: 1;"><g class="legendfill"/><g class="legendlines"><path class="js-line" d="M5,0h30" style="fill: none; stroke: rgb(245, 124, 0); stroke-opacity: 1; stroke-width: 2px;"/></g><g class="legendsymbols"><g class="legendpoints"><path class="scatterpts" transform="translate(20,0)" d="M4,0A4,4 0 1,1 0,-4A4,4 0 0,1 4,0Z" style="opacity: 1; stroke-width: 0px; fill: rgb(245, 124, 0); fill-opacity: 1;"/></g></g></g><rect class="legendtoggle" x="0" y="-9.5" width="114.03125" height="19" style="fill: rgb(0, 0, 0); fill-opacity: 0;"/></g></g></g><rect class="scrollbar" rx="20" ry="3" width="0" height="0" style="fill: rgb(128, 139, 164); fill-opacity: 1;" x="0" y="0"/></g><g class="g-gtitle"><text class="gtitle" x="35" y="50" text-anchor="start" dy="0em" style="opacity: 1; font-family: Roboto, sans-serif; font-size: 17px; fill: rgb(42, 63, 95); fill-opacity: 1; white-space: pre;">Benchmark Results - Resource Utilization</text></g><g class="g-xtitle"><text class="xtitle" x="304.65999999999997" y="587.9962890625" text-anchor="middle" style="opacity: 1; font-family: Roboto, sans-serif; font-size: 14px; fill: rgb(42, 63, 95); fill-opacity: 1; white-space: pre;">Framework</text></g><g class="g-ytitle"><text class="ytitle" transform="rotate(-90,32.896875,278)" x="32.896875" y="278" text-anchor="middle" style="opacity: 1; font-family: Roboto, sans-serif; font-size: 14px; fill: rgb(42, 63, 95); fill-opacity: 1; white-space: pre;">Memory (MB)</text></g><g class="g-y2title"><text class="y2title" transform="rotate(-90,574.6515625,278)" x="574.6515625" y="278" text-anchor="middle" style="opacity: 1; font-family: Roboto, sans-serif; font-size: 14px; fill: rgb(42, 63, 95); fill-opacity: 1; white-space: pre;">CPU (%)</text></g></g></svg>
