<svg xmlns="http://www.w3.org/2000/svg" viewBox="0 0 256 256" width="256" height="256" role="img" aria-label="spikard">
<defs><linearGradient id="g" x1="0" y1="0" x2="0.4" y2="1"><stop offset="0%" stop-color="#ff5a45"/><stop offset="100%" stop-color="#ff1d2d"/></linearGradient></defs>
<rect x="76.80" y="15.36" width="20.48" height="20.48" fill="url(#g)"/>
<rect x="97.28" y="15.36" width="20.48" height="20.48" fill="url(#g)"/>
<rect x="117.76" y="15.36" width="20.48" height="20.48" fill="#ffffff"/>
<rect x="138.24" y="15.36" width="20.48" height="20.48" fill="url(#g)"/>
<rect x="158.72" y="15.36" width="20.48" height="20.48" fill="url(#g)"/>
<rect x="56.32" y="35.84" width="20.48" height="20.48" fill="url(#g)"/>
<rect x="76.80" y="35.84" width="20.48" height="20.48" fill="url(#g)"/>
<rect x="158.72" y="35.84" width="20.48" height="20.48" fill="url(#g)"/>
<rect x="179.20" y="35.84" width="20.48" height="20.48" fill="url(#g)"/>
<rect x="35.84" y="56.32" width="20.48" height="20.48" fill="url(#g)"/>
<rect x="56.32" y="56.32" width="20.48" height="20.48" fill="url(#g)"/>
<rect x="179.20" y="56.32" width="20.48" height="20.48" fill="url(#g)"/>
<rect x="199.68" y="56.32" width="20.48" height="20.48" fill="url(#g)"/>
<rect x="15.36" y="76.80" width="20.48" height="20.48" fill="url(#g)"/>
<rect x="35.84" y="76.80" width="20.48" height="20.48" fill="url(#g)"/>
<rect x="199.68" y="76.80" width="20.48" height="20.48" fill="url(#g)"/>
<rect x="220.16" y="76.80" width="20.48" height="20.48" fill="url(#g)"/>
<rect x="15.36" y="97.28" width="20.48" height="20.48" fill="url(#g)"/>
<rect x="220.16" y="97.28" width="20.48" height="20.48" fill="url(#g)"/>
<rect x="15.36" y="117.76" width="20.48" height="20.48" fill="url(#g)"/>
<rect x="220.16" y="117.76" width="20.48" height="20.48" fill="url(#g)"/>
<rect x="15.36" y="138.24" width="20.48" height="20.48" fill="url(#g)"/>
<rect x="220.16" y="138.24" width="20.48" height="20.48" fill="url(#g)"/>
<rect x="15.36" y="158.72" width="20.48" height="20.48" fill="url(#g)"/>
<rect x="35.84" y="158.72" width="20.48" height="20.48" fill="url(#g)"/>
<rect x="199.68" y="158.72" width="20.48" height="20.48" fill="url(#g)"/>
<rect x="220.16" y="158.72" width="20.48" height="20.48" fill="url(#g)"/>
<rect x="35.84" y="179.20" width="20.48" height="20.48" fill="url(#g)"/>
<rect x="56.32" y="179.20" width="20.48" height="20.48" fill="url(#g)"/>
<rect x="179.20" y="179.20" width="20.48" height="20.48" fill="url(#g)"/>
<rect x="199.68" y="179.20" width="20.48" height="20.48" fill="url(#g)"/>
<rect x="56.32" y="199.68" width="20.48" height="20.48" fill="url(#g)"/>
<rect x="76.80" y="199.68" width="20.48" height="20.48" fill="url(#g)"/>
<rect x="158.72" y="199.68" width="20.48" height="20.48" fill="url(#g)"/>
<rect x="179.20" y="199.68" width="20.48" height="20.48" fill="url(#g)"/>
<rect x="76.80" y="220.16" width="20.48" height="20.48" fill="url(#g)"/>
<rect x="97.28" y="220.16" width="20.48" height="20.48" fill="url(#g)"/>
<rect x="117.76" y="220.16" width="20.48" height="20.48" fill="url(#g)"/>
<rect x="138.24" y="220.16" width="20.48" height="20.48" fill="url(#g)"/>
<rect x="158.72" y="220.16" width="20.48" height="20.48" fill="url(#g)"/>
</svg>
