<svg xmlns="http://www.w3.org/2000/svg" viewBox="0 0 256 256" width="256" height="256" role="img" aria-label="spikard">
<title>spikard</title>
<defs>
<filter id="redLift" x="-30%" y="-30%" width="160%" height="160%">
<feDropShadow dx="5" dy="6" stdDeviation="0" flood-color="#3b0005" flood-opacity="0.9"/>
<feDropShadow dx="0" dy="0" stdDeviation="1.2" flood-color="#ff1d2d" flood-opacity="0.35"/>
</filter>
<linearGradient id="warmBeam" x1="0" y1="0" x2="1" y2="1">
<stop offset="0%" stop-color="#f8d9a2" stop-opacity="0.3"/>
<stop offset="45%" stop-color="#9b351d" stop-opacity="0.09"/>
<stop offset="100%" stop-color="#000000" stop-opacity="0"/>
</linearGradient>
<clipPath id="clip"><rect width="256" height="256" rx="24"/></clipPath>
</defs>
<g clip-path="url(#clip)">
<rect width="256" height="256" fill="#020202"/>
<path d="M12 34L118 28L36 176L0 196L0 72Z" fill="url(#warmBeam)"/>
<path d="M18 18H238V238H18Z" fill="none" stroke="#ff1d2d" stroke-width="2"/>
<g transform="translate(128 128) skewX(-10) translate(-128 -128)" filter="url(#redLift)" shape-rendering="crispEdges">
<g fill="#ff1d2d">
<rect x="89" y="37" width="104" height="26"/>
<rect x="63" y="63" width="26" height="26"/>
<rect x="63" y="89" width="26" height="26"/>
<rect x="89" y="115" width="78" height="26"/>
<rect x="167" y="141" width="26" height="26"/>
<rect x="167" y="167" width="26" height="26"/>
<rect x="63" y="193" width="104" height="26"/>
</g>
<g fill="#020202">
<rect x="58" y="96" width="142" height="8"/>
</g>
</g>
<rect x="18" y="236" width="220" height="2" fill="#ff1d2d"/>
</g>
</svg>
